<svg xmlns="http://www.w3.org/2000/svg" viewBox="0 0 203.92 95.32"><defs><style>.cls-1,.cls-2,.cls-3{fill:none;stroke:#c6e7f7;stroke-miterlimit:10;}.cls-1{stroke-width:2.36px;}.cls-2{stroke-width:2.9px;}.cls-3{stroke-linecap:round;stroke-width:4.45px;}</style></defs><title>Recurso 5</title><g id="Capa_2" data-name="Capa 2"><g id="Capa_1-2" data-name="Capa 1"><path class="cls-1" d="M197.06,41,181.35,22.61a18.46,18.46,0,0,0-14.95-7.95h-9.21A17.85,17.85,0,0,0,140,1.18H40.63A17.85,17.85,0,0,0,22.83,19V64.41a17.85,17.85,0,0,0,17.8,17.8h5.88a11.67,11.67,0,0,0,23.33,0h90a11.67,11.67,0,0,0,23.33,0h1.77a17.85,17.85,0,0,0,17.8-17.8V54.12C202.74,48.89,200.16,44.27,197.06,41Z"/><circle class="cls-2" cx="58.2" cy="82.21" r="11.66"/><circle class="cls-2" cx="171.81" cy="82.21" r="11.66"/><polyline class="cls-1" points="165.41 14.97 165.41 42.16 197.96 42.16"/><line class="cls-1" x1="157.19" y1="14.66" x2="157.19" y2="82.21"/><line class="cls-3" x1="46.54" y1="27.14" x2="2.22" y2="27.14"/><line class="cls-3" x1="46.54" y1="42.16" x2="2.22" y2="42.16"/><line class="cls-3" x1="46.54" y1="57.18" x2="2.22" y2="57.18"/></g></g></svg>