<svg xmlns="http://www.w3.org/2000/svg" viewBox="0 0 188.21 84.23"><defs><style>.cls-1,.cls-2{fill:none;stroke:#ffa8ab;stroke-miterlimit:10;stroke-width:5px;}.cls-2{stroke-linecap:round;}</style></defs><title>Recurso 1</title><g id="Capa_2" data-name="Capa 2"><g id="Capa_1-2" data-name="Capa 1"><line class="cls-1" x1="175.5" y1="81.73" x2="13.5" y2="81.73"/><path class="cls-2" d="M163.25,70.21c.17-3.44-5.16-13.33-6.39-15.45a71.67,71.67,0,0,0-8.62-11.93A71.8,71.8,0,0,0,94.5,18.73c-19.85,0-39.94,7.79-53.72,22.26-5.54,5.81-10.56,12.6-13.3,20.21A29.85,29.85,0,0,0,26,67c-.09.6-.53,2.15-.08,2.62"/><path class="cls-1" d="M19.48,52.37c-8.1,0-17,6.6-17,14.7s5,14.58,13.09,14.58"/><path class="cls-1" d="M44.6,37.29c-2.25-8.16-12.27-9.3-19.06-6.07a14.81,14.81,0,0,0-6.06,21.15c2.56,4,4.51,5.53,9.27,5.72"/><path class="cls-1" d="M67.73,23.52c-1.28-7.54-6.88-8.87-14.59-8.09A14.67,14.67,0,0,0,40,31.48"/><path class="cls-1" d="M100.62,17a16.09,16.09,0,1,0-32,3.21,16.3,16.3,0,0,0,1.18,4.65"/><path class="cls-1" d="M132.37,29.8c3.23-3.11,3.33-5.62,2.85-10.43A15.16,15.16,0,0,0,118.64,5.81c-8.18.82-14.14,5.56-13.56,13.71"/><path class="cls-1" d="M156.86,54.76c7.12-1.61,6.92-9.51,6.17-16.95A14.67,14.67,0,0,0,147,24.67c-5.9.6-9.89,2.88-11.69,8.14"/><path class="cls-1" d="M172.5,81.65a14.67,14.67,0,0,0-2.92-29.19c-4.64.46-8.54.64-10.87,4.27.94.91,1.55,4.53,1.38,5.85"/></g></g></svg>