<svg xmlns="http://www.w3.org/2000/svg" viewBox="0 0 87.28 74.93"><defs><style>.cls-1,.cls-2{fill:none;stroke-miterlimit:10;}.cls-1{stroke:#68b000;stroke-width:4px;}.cls-2{stroke:#00754f;stroke-width:5px;}</style></defs><title>FreshIcon_1</title><g id="Capa_2" data-name="Capa 2"><g id="Capa_1-2" data-name="Capa 1"><path class="cls-1" d="M36,29.45c-3.47-4.65-8.41-6.12-14-8.67a25.81,25.81,0,0,1-8.64-5.66c-1.09-1.19-2.12-3.62-4-1.51-3.77,4.31-5,10.69-6.35,16a33.34,33.34,0,0,0-1,7.18A24.1,24.1,0,0,0,4,47.5a19.14,19.14,0,0,0,4.6,6,19.28,19.28,0,0,0,14.05,5,22.81,22.81,0,0,0,4.71-.84c.76-.23,3-.77,3.19-1.68.29-1.25-1.81-2.29-2.63-2.9-1.21-.89-2.41-1.8-3.57-2.77C22,48.37,18.94,46,18,42.88c-1-3.49,6.44,2.39,7,2.72,1.63,1,3.39,1.85,4.94,3"/><path class="cls-2" d="M84.56,37.49a50,50,0,0,0-2.25-10.64C79.74,19,77.15,9.59,71.12,3.58c-3-2.93-4.19.82-5.65,2.73-3.15,4.12-7.59,7-12,9.51C41.69,22.39,29,29.46,29,44.75c0,6.7,2.55,12.1,6.17,17.55a2,2,0,0,0,1,.9,1.91,1.91,0,0,0,1-.12A44.91,44.91,0,0,0,53,53.93a55.12,55.12,0,0,0,6.16-6.44c.76-.94,1.54-2.23,2.73-2.66.54-.19-.93,3.84-1,4-.78,1.4-1.79,2.67-2.48,4.11a26.68,26.68,0,0,1-5.15,7.42C51.66,62,50,63.46,48.32,65c-1.14,1-4.1,2.8-3.53,4.65.41,1.34,3.74,1.88,4.88,2.13a32.59,32.59,0,0,0,7,.7c7.6,0,14.91-3.66,20.08-9.13a28.72,28.72,0,0,0,6-9.6A36.75,36.75,0,0,0,84.56,37.49Z"/></g></g></svg>