<svg xmlns="http://www.w3.org/2000/svg" viewBox="0 0 117.95 114.07"><defs><style>.cls-1,.cls-2{fill:none;stroke:#e8c5f9;stroke-miterlimit:10;}.cls-1{stroke-width:3.22px;}.cls-2{stroke-linecap:round;stroke-width:3.22px;}.cls-3{fill:#e8c5f9;}</style></defs><title>Recurso 4</title><g id="Capa_2" data-name="Capa 2"><g id="Capa_1-2" data-name="Capa 1"><path class="cls-1" d="M60.5,111.94c-7.38.26-14.76.3-22.14.31-6.53,0-13.87,1-20.16-1.41a8.77,8.77,0,0,1-4.47-3.43,14.71,14.71,0,0,1-1.61-6.28c-.83-8.74-1-13.91.29-22.57"/><path class="cls-1" d="M58.25,111.86l22.37.38c6.62.11,13.51,1,19.91-1.57a8.64,8.64,0,0,0,4.41-3.43,14.55,14.55,0,0,0,1.57-6.25A91.41,91.41,0,0,0,106,77"/><path class="cls-1" d="M102.2,46.46a15,15,0,0,0,.94-5.22c0-7.31-5.32-13.59-12.92-16.3,0-.48.08-1,.08-1.43,0-12.1-10.9-21.9-24.35-21.9S41.6,11.41,41.6,23.51c0,.12,0,.23,0,.35a25.21,25.21,0,0,0-7.91-1.27c-11.78,0-21.32,7.94-21.32,17.73A15.1,15.1,0,0,0,14,47.06C6.69,49.87,1.61,56,1.61,63.14c0,9.79,9.55,17.73,21.32,17.73,7.52,0,14.12-3.24,17.92-8.13a22.79,22.79,0,0,0,17.4,7.51c7.69,0,14.41-3.4,18.16-8.47C80.05,77.2,87,80.87,95,80.87c11.78,0,21.32-7.94,21.32-17.73C116.34,55.44,110.44,48.91,102.2,46.46Z"/><line class="cls-2" x1="24.59" y1="87.31" x2="27" y2="103.69"/><line class="cls-2" x1="43.8" y1="86.57" x2="46.2" y2="102.93"/><line class="cls-2" x1="71.85" y1="87.03" x2="71.27" y2="103.03"/><line class="cls-2" x1="92.35" y1="87.23" x2="91.32" y2="103.77"/><ellipse class="cls-3" cx="39.85" cy="35.47" rx="6.35" ry="5.78"/><ellipse class="cls-3" cx="75.09" cy="21.79" rx="6.62" ry="5.54" transform="translate(11.24 66.92) rotate(-51.43)"/><ellipse class="cls-3" cx="68.94" cy="52.33" rx="6.45" ry="5.69" transform="matrix(0.85, -0.52, 0.52, 0.85, -17.16, 43.54)"/><ellipse class="cls-3" cx="24.59" cy="58.24" rx="6.45" ry="5.69" transform="translate(-26.72 21.31) rotate(-31.37)"/><ellipse class="cls-3" cx="94.7" cy="62.69" rx="6.45" ry="5.69" transform="translate(-18.79 58.47) rotate(-31.37)"/></g></g></svg>