<svg xmlns="http://www.w3.org/2000/svg" xmlns:xlink="http://www.w3.org/1999/xlink" viewBox="0 0 299.59 323.12"><defs><style>.cls-1{fill:url(#Degradado_sin_nombre_21);}.cls-2{fill:#f4e2b4;}.cls-3{fill:#efefef;}.cls-4{fill:#835333;}.cls-5{fill:#fff;}.cls-6{fill:#af7c56;}.cls-17,.cls-31,.cls-7,.cls-8{fill:none;}.cls-7{stroke:#1d1d1b;}.cls-17,.cls-29,.cls-31,.cls-7,.cls-8{stroke-miterlimit:10;}.cls-8{stroke:#563716;}.cls-9{fill:#d8ac80;}.cls-10{fill:#563716;}.cls-11{fill:#8c1919;}.cls-12{fill:#751615;}.cls-13{fill:#661d1d;}.cls-14{fill:#a15d2e;}.cls-15{fill:#bc7f54;}.cls-16{fill:#fdd5a4;}.cls-17{stroke:#563715;}.cls-18{fill:#5b3920;}.cls-19{fill:#16120b;}.cls-20{fill:#0b0806;}.cls-21{fill:#a97649;}.cls-22{fill:#3e2914;}.cls-23{fill:#b77e55;}.cls-24{fill:#9e6f4f;}.cls-25{fill:#dfb394;}.cls-26{fill:#563715;}.cls-27,.cls-29{fill:#1d1d1b;}.cls-28{font-size:36px;font-family:MarketingScript, Marketing Script;}.cls-28,.cls-30{fill:#8c5114;}.cls-29,.cls-31{stroke:#8c5114;}.cls-29{stroke-width:2px;}</style><linearGradient id="Degradado_sin_nombre_21" x1="-2.9" y1="149.79" x2="303.91" y2="149.79" gradientUnits="userSpaceOnUse"><stop offset="0" stop-color="#cc7d00"/><stop offset="0.12" stop-color="#f9af2f"/><stop offset="0.29" stop-color="#f7b42c"/><stop offset="0.5" stop-color="#bca50d"/><stop offset="0.68" stop-color="#f7b82f"/><stop offset="0.84" stop-color="#f9b233"/><stop offset="1" stop-color="#c47800"/></linearGradient></defs><title>LogoMH_1</title><g id="Capa_2" data-name="Capa 2"><g id="Capa_1-2" data-name="Capa 1"><circle class="cls-1" cx="149.79" cy="149.79" r="149.79"/><circle class="cls-2" cx="149.79" cy="149.6" r="147.76"/><path class="cls-3" d="M82.69,86.67s2.65,13.85,10.75,14.72,11.59,4.43,12,6a22.27,22.27,0,0,0,2,4.21l1.94.52,1.41,0-2.6-13.39s-9.57,1.29-9.93.73-7.1-.84-8.12-2.88-6.88-5.45-6.78-9.28-.15.42-.15.42"/><polygon class="cls-4" points="108.25 112.11 111.78 129.19 114.36 127.96 114.93 125.38 111.31 112.2 108.25 112.11"/><path class="cls-5" d="M72.84,44.3s-9.4-4.89-18.07-.35S42.9,59.58,42.9,59.58L42.31,66l2.42,11.18s3.78,12.13,3.21,13.2A3.51,3.51,0,0,0,48.12,93l1,2.32-.95,15,.11,2.89,62.76-1.37,3.11,12.67,62.4-13.08s-6-14.26-5.09-19.16c0,0,12.15.05,13.59-.83s3.42,15.88,1.54,18.44,1.27,1.33,1.27,1.33l62.31,1.16.21-7.47s-1.25-10.45,0-12.18,14.9-13.21,13.44-22-10.42-10.85-10.42-10.85a4.89,4.89,0,0,0-4.15-4.61c-4.14-.86-11.38,1.49-11.38,1.49s-9.64-6.1-19.94-4.34-20.92,9.92-20.92,9.92a16.83,16.83,0,0,0-5.91-.64,15.24,15.24,0,0,0-15.5-11.22c-12.79.23-17.65,2.67-17.65,2.67s-14.12-13.42-25-12.38-21.46,7-21.46,7L104,45.51s-5.22-7.09-12.28-6.82-17,5.93-17,5.93Z"/><path class="cls-5" d="M210.23,135.89s1.53-9.52,7-10.54,6.05-1.55,7.8-.79,7.1,2.78,7.95,7.28,1.62,10.43-2.17,12.6a41.29,41.29,0,0,0-5.36,3.48s-8.08,1.5-10.92-2.1-5-3.51-4.32-9.93"/><path class="cls-5" d="M236.49,138.6s.72-9.27,6-11.22c0,0,4.61-2.75,8.22,0a18.08,18.08,0,0,1,5.19,6.4l-1,8.64-3,3.32s-7.66-2.74-13-2.3Z"/><path class="cls-5" d="M85.11,145.63A11.77,11.77,0,0,1,75.59,149a5.6,5.6,0,0,1-4.08-2.28l-3.78-2.21s-3.59-5.33-2.52-9.09,3.3-9.25,7-9.53c0,0,5.8-2,8.93-.23s5.81,4,6.55,6.26,1.45,7.09.52,8.66-3.08,5-3.08,5"/><path class="cls-5" d="M60.46,144s3.24-5.45,1.82-8.66-4.23-7.85-7.67-8-8.35.95-8.86,2.48c0,0-3.19,3.39-3,5.19s1.38,8,1.38,8L46.78,146s3.71-1.53,5-1.39,8.69-.68,8.69-.68"/><line class="cls-3" x1="120.53" y1="57.03" x2="117.9" y2="52.45"/><path class="cls-6" d="M122.1,127.61l0,.06s.45,0,0-.06"/><line class="cls-7" x1="22.7" y1="161.2" x2="22.69" y2="161.2"/><path class="cls-8" d="M112.68,112.11a45.81,45.81,0,0,1,8,11.58s0,0,0,0c.68,1.37,1.27,2.76,1.8,4.16"/><path class="cls-9" d="M124.92,134.82s-3.16-3.34-6.57-3a9.64,9.64,0,0,0-5.19,2l-2.36,2.35-.14.17,6.41,2.16s5.92-3.56,8.41-3.18Z"/><path class="cls-10" d="M75.83,45a28,28,0,0,0-3.53,3c-.49.76-.2-.07-.2-.07s1.18-3.13,1.76-3.06"/><path class="cls-3" d="M48.9,93.34s8.81-1.2,8.94-1.11"/><path class="cls-11" d="M80,178.33a8.28,8.28,0,0,1,2.22,1l.17.18.69.7c.46.48.91,1,1.36,1.46s1,1.14,1.46,1.71l.24.3a14.49,14.49,0,0,1,.71,1.35l.18,0,.64-.1,9.46-2.63s.4-.05,1.05-.19c1.78-.37,5.45-1.38,7.83-3.79a3.53,3.53,0,0,0,.83-1.26c1.12-3-3.13-6.26-3.13-6.26a23.16,23.16,0,0,0-4-.14,1.61,1.61,0,0,0-1.06.37.21.21,0,0,0-.07.16c0,.74-7.51,5.35-18.58,7.16"/><path class="cls-11" d="M43.33,182.68a.67.67,0,0,0,.06.12c.4.86,1.9,1.54,3.88,2.08.34.1.7.19,1.07.28a85.53,85.53,0,0,0,12.19,1.62l.44,0a4.31,4.31,0,0,0,.63.42c2.44,1.37,6.18,1,8.45.63h0c1.18-.21,2-.43,2-.43l.47-.07.57-.09a1,1,0,0,0-.28,0,10.22,10.22,0,0,1-.39-1.62c-.42-5.63.39-6.15.39-6.15.34-.18.67-.35,1-.5l-.41,0a52,52,0,0,1-6.91-.15c-1.11-.1-2.17-.21-3.16-.33l-.35,0-1-.14-1-.15c-1.7-.25-3.22-.54-4.57-.85-7.55-1.69-10-3.89-11.29-4.16a.93.93,0,0,0-.47,0,.46.46,0,0,0-.16.07c-.75.43-1.37,2-1.63,3.88a10.86,10.86,0,0,0,.54,5.53"/><path class="cls-12" d="M104.23,171.2s-18.08,9.87-23.55,7.32c0,0,15.11-3.62,18.6-7.34,0,0,4.35-.21,4.47-.56s.48.58.48.58"/><path class="cls-12" d="M100.91,172.9s2.38-.89,1.4.59a20.08,20.08,0,0,1-2.47,2.92s4.55-.61,6.45-3.12c0,0-1.18-2.23-1.86-2.22s-3.52,1.83-3.52,1.83"/><path class="cls-12" d="M81.73,178.82s.19.27.37.45l.16.17c.23.24.46.47.7.7.46.49.91,1,1.36,1.47s1,1.14,1.46,1.71l.24.3c.16.19.31.38.46.58s.48.51.42.74a3,3,0,0,0,.16-1.8,3.53,3.53,0,0,0-.65-1.5,5.66,5.66,0,0,0-.7-.77,12.24,12.24,0,0,0-2.09-1.43,5.44,5.44,0,0,0-1.28-.57l-.11,0a1.21,1.21,0,0,0-.5,0"/><path class="cls-12" d="M84.63,178.77s-1.73.14.85,1.38,8.27-.75,8.27-.75a10.86,10.86,0,0,1-7.18,2.31l-1.14,0-2.89-2.56s-1.17-.88,2.09-.42"/><path class="cls-11" d="M80,178.29A14.11,14.11,0,0,1,88,188.12c1.88,7.59.56,7.81.56,7.81s.26,4.63,2.67,6.06.13.16.13.16,3.48,4,3.82,3.88-8,1-12.38-2.61-6.55-9.72-6.48-10.86-1.48-5-2.86-5.34-2-7.05-1-7.49,3.91-2.54,5.17-1.95a5.28,5.28,0,0,0,2.33.51"/><path class="cls-12" d="M84.43,197.53s-5.59-8-8.55-11.8-2.8.75-2.8.75-1.5-3.16-.66-4.37c.53-.76,6.73.16,12,15.42"/><path class="cls-13" d="M73.08,180.19a13.55,13.55,0,0,0-1.26,2.64,2.56,2.56,0,0,1,.6-.72c1.4-.94,4.3,2.42,4.87,3.21a42,42,0,0,1,4.44,7.5c1.32,2.89,2.26,4.81,5,6.82-1.34-1.15-1.06-1.44-1.92-2.83a19.22,19.22,0,0,1-2.2-5.14c-.37-1.4-.56-2.84-1-4.21-1.15-3.31-4.82-5.07-8.46-6.36A11.73,11.73,0,0,1,73.8,179c.19-.11-.72,1.2-.72,1.2"/><path class="cls-13" d="M74.12,181.64s-1.55-1.45-.49-2.65c.55-.63-1.06,2.1-1.06,2.1Z"/><path class="cls-13" d="M73.5,181.87s-1.68,1.95-.7,3.71c0,.14-1.76-2.64-.53-3.83,1.07-1.05,1.23.12,1.23.12"/><path class="cls-11" d="M61.05,178.89s-2.25,7.5-.52,8.18c0,0-2.4.59-3.43,7.27,0,0-2.12,6.49-4.85,8.14A20.59,20.59,0,0,1,39.42,206s-.2-1.1,2.32-3,4.13-6,3.56-8.31.8-7.86,1.14-8,2.05-4.77,3.34-5.55c0,0,3.86-3.72,5.53-3.57,0,0,3.64-.76,4.54-.07a11.14,11.14,0,0,0,1.33.94Z"/><path class="cls-12" d="M60,186.57s-.36-2.71-1.94-2S51.62,196,51.62,196s1.9-12.95,6.21-12.94c3.52,0,1.86,2,1.86,2"/><path class="cls-13" d="M60.53,179.69s-.81,2-1.9,2.06-6.26.71-7,8-2.34,10-3.41,10.36a10,10,0,0,0,4.22-6.77c.48-4.41,4-10.07,5.8-10.09s1.58,2.35,1.58,2.35"/><path class="cls-12" d="M44.14,174.21s4.06,3,6.92,3.35-.64.87-.64.87l2.3.56,2.94-1.79s-10.53-2.82-10.6-4-.92.68-.92.68Z"/><path class="cls-12" d="M44.91,174.74s-2.24,4.25-.18,4.45c0,0-1.4,0-1.73-.66s1.14-4.32,1.14-4.32"/><path class="cls-12" d="M50.49,181s-2.7-.08-3-.58,1.2,1.82,2,1.45a1.64,1.64,0,0,0,1-.87"/><path class="cls-12" d="M70,179.09c0,.1-.07.19-.16.35a5.51,5.51,0,0,0-.61,1.49,14.09,14.09,0,0,0-.16,1.58,1.48,1.48,0,0,1-.08-.67c0-.28,0-.56,0-.84,0-.59,0-1.17,0-1.75,0-.3.14-.65.56-.52a1.37,1.37,0,0,1,.36.19.43.43,0,0,1,.15.17"/><path class="cls-12" d="M68.36,183.49c0,.38.15,1.19.2,1.57s.12.92.21,1.37.07,1.26.81,1.39c.35.06.44-.08.43-.25a.8.8,0,0,0-.12-.31c-.13-.2-.27-.4-.39-.61a8.62,8.62,0,0,1-1-2.51"/><path class="cls-12" d="M68.36,187.74s-1.11-1.14-1-1.36c0,0,0,1.4.62,1.45s.33-.09.33-.09"/><path class="cls-12" d="M62.35,187.26s-1-1.33-.68-1.86l0,0s-.56,1.52.29,1.74.37.15.37.15"/><path class="cls-12" d="M66.53,179.19a8.36,8.36,0,0,0-.64,2c.06.41-.3-2.13.14-2.24s.5.2.5.2"/><path class="cls-12" d="M63.69,178.8s-1.6,3.49-1.36,4.09c0,0-.06-3.95.56-4.18s.8.09.8.09"/><path class="cls-12" d="M73.34,179.31s-3,2.22-.55,7.95c0,0-2.89-1.89-1.42-6,0,0,.64-2,1.71-2.09.74-.08.26.12.26.12"/><path class="cls-3" d="M71.4,49.72s-5.64,20.53-5,21.89-2.91-1.5,5-21.89"/><path class="cls-3" d="M65.51,75.09s1.91,9.32,2,10l2.07,3.27Z"/><path class="cls-3" d="M51.82,87.17s.48.51.62.34.51-.83.51-.83-.2,3.8-.51,4-.62-3.48-.62-3.48"/><path class="cls-3" d="M48.36,93.33c1.26-.21,3.19-.15,3.81-1.21a3.65,3.65,0,0,0,.1-3,13.66,13.66,0,0,0-1.14-1.49,13.94,13.94,0,0,1-2-4.27c-1.94-5.85-3.28-11.81-5.36-17.64a1.3,1.3,0,0,0-.72-.92,18.45,18.45,0,0,0-.09,2.38c.09,1.09.22,2.17.4,3.26C44.09,75,45.62,79.5,46.85,84c.31,1.24.59,2.48.85,3.72.34,1.64,1.19,4,.66,5.61"/><path class="cls-3" d="M66.24,78.17s1.07,6.63,1.25,6.88,3.64,6.08,4,6.16a1.88,1.88,0,0,0,.73,0s-7-16.54-6.88-16.87"/><path class="cls-3" d="M102.86,98.31a12.63,12.63,0,0,0,1.1-.76c-.56.33,3.35,12.48,4.9,12.49s.58,2.11.58,2.11l1.87-.25s-1.69-7.39-3.06-14.58a41.37,41.37,0,0,0-5.39,1"/><path class="cls-14" d="M48.51,113.3S40.75,124.48,42.29,131s-.14.41-.14.41S44.92,120,49,120.24s6.13.51,8.76,3.43a24.07,24.07,0,0,0,4.57,4.11,16.61,16.61,0,0,1,6.51-8.06c4.76-2.88,13.35-2.56,13.35-2.56l7.45,3.48s5,3.83,5,5.57,2.25.56,1.28,10.73c0,0-1.92,3.86,6.52,6.71s.33.23.33.23.77-10.72,8.16-14.35,11.48-1.65,11.48-1.65-6.81-14.8-9.64-15.63-64.3,1-64.3,1"/><path class="cls-15" d="M48.19,113.31h2.29s-5.58,9.25-5.39,9.87c0,0-3.24,4.26-2.63,7.89s-.17,0-.17,0-.39-6.94,2.26-10.75Z"/><path class="cls-4" d="M110,112.15l2.86.1s8.72,10,9.64,15.63l-2.14-.27s-7.56-15.36-10.36-15.46"/><path class="cls-8" d="M86.82,185a.93.93,0,0,1,.05.1c3.93-.89,7.93-1.94,11.28-3a26.54,26.54,0,0,0,7.1-3.19,5.09,5.09,0,0,0,1.56-1.86c1.45-3.32-3-6.6-3-6.6"/><path class="cls-8" d="M60.92,187l.15,0,.54.18c2.28.77,2.91,1.3,8.45.63h0l1.29-.17c.64-.08,1.38-.23,2.13-.34"/><path class="cls-8" d="M44.76,173s-.07.08-.17.22a11.1,11.1,0,0,0-1.79,4,9.84,9.84,0,0,0,0,4.58,2.27,2.27,0,0,0,.51,1c.86,1,1.6,1.57,3.94,2.2"/><path class="cls-6" d="M48.32,105.09c0,.24,0,.49,0,.74v1.09c.07-.58.14-1.18.21-1.79l-.22,0"/><path class="cls-8" d="M61.06,187a1.69,1.69,0,0,1-.52-.26c-2.28-1.61.82-8.35.82-8.35"/><path class="cls-6" d="M41.3,104s0,0,.07.07-.08-.14-.07-.07"/><path class="cls-14" d="M119.26,153l-5.05,8.12s-7.82,9.91-14.37,10c0,0,5.88-5.56,6.12-6.89,0,0,3.17-2.18,2.65-11.29,0,0,8.27,1.29,10.65.1"/><path class="cls-9" d="M40,138.48s-6.15,3.17.3,11.37c0,0,3.76-3,4.48-2.91l-.6-3.9-.68-3.28"/><path class="cls-16" d="M108.2,151.91c.84,2.71,9.46,1.52,11.48,1a15.53,15.53,0,0,0,9.24-6.16,15.11,15.11,0,0,0,2.15-6.06,11.77,11.77,0,0,0-1.13-7.77c-2.46-4.17-8.57-6-13.76-5.16-8.6,1.43-12.49,9.24-13.7,15.86"/><path class="cls-17" d="M108.2,151.91c.84,2.71,9.46,1.52,11.48,1a15.53,15.53,0,0,0,9.24-6.16,15.11,15.11,0,0,0,2.15-6.06,11.77,11.77,0,0,0-1.13-7.77c-2.46-4.17-8.57-6-13.76-5.16-8.6,1.43-12.49,9.24-13.7,15.86"/><path class="cls-16" d="M65.12,136.94A11.81,11.81,0,1,1,76.92,149a11.57,11.57,0,0,1-4.51-.91c-.44-1.54-2.4-2.56-4.27-3.09a12,12,0,0,1-3-8.06m-4.2,41.27,2.4.33a70.36,70.36,0,0,0,20.52-.79,39.48,39.48,0,0,0,15.44-6.52,22.92,22.92,0,0,0,8.53-10.87,15.24,15.24,0,0,0,.39-8.41v0a13.58,13.58,0,0,0-5.71-8.28,13.82,13.82,0,0,0-1.36-.79c-1.64-.83-4-1-4.64-2.69-1.26-3.1.23-6.61-.4-9.83a15.41,15.41,0,0,0-4.15-7.74A18.75,18.75,0,0,0,74,117.75c-5.51,1.42-10,5.33-11.65,10-2.94-2.73-9-9.3-14.1-7.13-3.18,1.36-4.7,5.24-5.23,8a24.81,24.81,0,0,0-.26,6.35c0,.27,0,.54.08.81a10,10,0,0,1,9.66-8.78c5.4,0,9.79,4.69,9.79,10.49A10.93,10.93,0,0,1,60.2,144H59c-1.37,0-2.73.11-4.1.25-.85.08-1.69.19-2.52.31l-.18,0a12.6,12.6,0,0,0-4.25,1.24,4.78,4.78,0,0,0-.75.52,10.22,10.22,0,0,1-3-3.32c.33,1.39.69,2.74,1,4.05-3,.87-5,3.21-6.46,5.72-.43.71-.82,1.44-1.19,2.16a4.63,4.63,0,0,0-3.47-.92,2.46,2.46,0,0,0-1.8,2.22,4.55,4.55,0,0,0,1,2.71,12.26,12.26,0,0,0,1,1.29c-1.73,5.08,3.9,7,3.9,7,.59.2,1.64,2,2.1,2.42A24.45,24.45,0,0,0,44.73,173l.33.19c.91.52,1.86,1,2.83,1.44a44.83,44.83,0,0,0,8.46,2.74m0,0c1.63-.24,3.77-.23,4.57.85"/><path class="cls-17" d="M65.12,136.94A11.81,11.81,0,1,1,76.92,149a11.57,11.57,0,0,1-4.51-.91c-.44-1.54-2.4-2.56-4.27-3.09A12,12,0,0,1,65.12,136.94Zm-4.2,41.27,2.4.33a70.36,70.36,0,0,0,20.52-.79,39.48,39.48,0,0,0,15.44-6.52,22.92,22.92,0,0,0,8.53-10.87,15.24,15.24,0,0,0,.39-8.41v0a13.58,13.58,0,0,0-5.71-8.28,13.82,13.82,0,0,0-1.36-.79c-1.64-.83-4-1-4.64-2.69-1.26-3.1.23-6.61-.4-9.83a15.41,15.41,0,0,0-4.15-7.74A18.75,18.75,0,0,0,74,117.75c-5.51,1.42-10,5.33-11.65,10-2.94-2.73-9-9.3-14.1-7.13-3.18,1.36-4.7,5.24-5.23,8a24.81,24.81,0,0,0-.26,6.35c0,.27,0,.54.08.81a10,10,0,0,1,9.66-8.78c5.4,0,9.79,4.69,9.79,10.49A10.93,10.93,0,0,1,60.2,144H59c-1.37,0-2.73.11-4.1.25-.85.08-1.69.19-2.52.31l-.18,0a12.6,12.6,0,0,0-4.25,1.24,4.78,4.78,0,0,0-.75.52,10.22,10.22,0,0,1-3-3.32c.33,1.39.69,2.74,1,4.05-3,.87-5,3.21-6.46,5.72-.43.71-.82,1.44-1.19,2.16a4.63,4.63,0,0,0-3.47-.92,2.46,2.46,0,0,0-1.8,2.22,4.55,4.55,0,0,0,1,2.71,12.26,12.26,0,0,0,1,1.29c-1.73,5.08,3.9,7,3.9,7,.59.2,1.64,2,2.1,2.42A24.45,24.45,0,0,0,44.73,173l.33.19c.91.52,1.86,1,2.83,1.44a44.83,44.83,0,0,0,8.46,2.74m0,0c1.63-.24,3.77-.23,4.57.85"/><path class="cls-16" d="M43,140.06l-.58-5.14s-6.63-4.23-7.67-4.25-3.6-1.47-5.36-.3-1.6-1.11-4.64,6.29c0,0-1.71,6.24,1.17,9.19A12,12,0,0,0,32.27,151a40,40,0,0,0,5.95,1.68l1.79-2.4s-3.61-4.95-2.93-6.43c0,0,.47-5,2.39-5.4S43,140.06,43,140.06"/><path class="cls-16" d="M97.23,159.57a7.59,7.59,0,0,1-3.37-1.5c-.56-.39-1.29-1.1-.81-1.73"/><path class="cls-17" d="M97.23,159.57a7.59,7.59,0,0,1-3.37-1.5c-.56-.39-1.29-1.1-.81-1.73"/><path class="cls-16" d="M68.19,145l-.43-.12A33.61,33.61,0,0,0,60.2,144"/><path class="cls-17" d="M68.19,145l-.43-.12A33.61,33.61,0,0,0,60.2,144"/><path class="cls-16" d="M68.86,152.75c1.9-1,3.87-2.45,3.64-4.32,0-.13,0-.26-.08-.38"/><path class="cls-17" d="M68.86,152.75c1.9-1,3.87-2.45,3.64-4.32,0-.13,0-.26-.08-.38"/><path class="cls-16" d="M47.12,146.38a3.16,3.16,0,0,0-1.36,2.75c.18,1.55,1.78,2.67,3.25,3.61"/><path class="cls-17" d="M47.12,146.38a3.16,3.16,0,0,0-1.36,2.75c.18,1.55,1.78,2.67,3.25,3.61"/><path class="cls-16" d="M34.13,160.14c2.59,3.15,6.8,5.14,11,6.34a58.48,58.48,0,0,0,12,1.82,77.33,77.33,0,0,0,17.61-.6c7.39-1.24,14.56-4.16,19.61-9"/><path class="cls-17" d="M34.13,160.14c2.59,3.15,6.8,5.14,11,6.34a58.48,58.48,0,0,0,12,1.82,77.33,77.33,0,0,0,17.61-.6c7.39-1.24,14.56-4.16,19.61-9"/><path class="cls-8" d="M42.83,135.79A54.45,54.45,0,0,0,44.14,143"/><path class="cls-9" d="M108,150.12l-2.4-4.16s4.31-9.5,5.41-9.39,8.39,1.9,7.56,5.2-1.62,6.08-8.46,8.1Z"/><path class="cls-17" d="M42.75,135A36.29,36.29,0,0,0,35,130.59a9.86,9.86,0,0,0-3-.77,6.34,6.34,0,0,0-2.53.26A6.48,6.48,0,0,0,26,133.2c-2,3.56-2.77,7.55-1.14,11.32,2.15,5,8,7.78,13.92,8.23"/><path class="cls-8" d="M72.41,148.05a11.75,11.75,0,0,0,4.51.91,12.07,12.07,0,1,0-11.8-12.06"/><path class="cls-8" d="M59.46,144h.74a10.93,10.93,0,0,0,2.08-6.46c0-5.8-4.39-10.5-9.79-10.5-4.87,0-9.67,3.76-9.66,8.78,0,.55.13.9.18,1.48A27,27,0,0,0,44.13,143c.41,1.44,1.8,2.47,3,3.32a6.66,6.66,0,0,1,.75-.52,12.3,12.3,0,0,1,4.25-1.23l.17,0c.84-.12,1.68-.22,2.53-.31"/><path class="cls-8" d="M99.28,171.18h.66s8.27,1.37,19.75-18.29"/><path class="cls-9" d="M37.08,141.53l.26-.36,2.08-2.95s-3.56-3.2-5.66-3.38-3-.83-3.71,0A5.45,5.45,0,0,0,29,137.65v.83s2.73,0,7.87,3.83"/><path class="cls-8" d="M48.32,113.13s-8.82,12.4-5.65,20.1"/><path class="cls-18" d="M88.05,138.48c0-4.48-3.27-8.11-7.3-8.11s-7.3,3.63-7.3,8.11,3.27,8.12,7.3,8.12,7.3-3.63,7.3-8.12"/><path class="cls-19" d="M87.34,139.17c0-3.54-2.48-6.41-5.55-6.41s-5.54,2.87-5.54,6.41,2.48,6.4,5.54,6.4,5.55-2.86,5.55-6.4"/><path class="cls-18" d="M50.12,138.38a7.29,7.29,0,0,0,2.79,5.93l.17,0c.84-.13,2.05-.24,2.89-.32a5.93,5.93,0,0,1-2.25-4.39c0-2.88,1.81-5.22,4.05-5.22s3.82,2,4,4.66c0-.21,0-.42,0-.64,0-3.84-2.62-6.95-5.86-6.95s-5.85,3.11-5.85,6.95"/><path class="cls-20" d="M53.72,139.48a5.65,5.65,0,0,0,1.89,4.4c1.36-.14,2.73-.23,4.1-.25h.51a5.77,5.77,0,0,0,1.61-4.14c0-.19,0-.38,0-.56-.22-2.61-1.94-4.66-4-4.66s-4.05,2.34-4.05,5.22"/><path class="cls-16" d="M60.46,144a50.5,50.5,0,0,0-6.4.33l-2.58.35"/><path class="cls-17" d="M60.46,144a50.5,50.5,0,0,0-6.4.33l-2.58.35"/><path class="cls-5" d="M80.75,134.82a2,2,0,1,1-2-2.06,2,2,0,0,1,2,2.06"/><path class="cls-5" d="M56.51,136.54a1.9,1.9,0,1,1-1.9-1.94,1.92,1.92,0,0,1,1.9,1.94"/><path class="cls-8" d="M43.08,140.43s-1.33-1.08-3.17-2.32c-4.63-3.12-12.52-7.28-10.84,2"/><path class="cls-8" d="M126.4,135.79s-12-13.94-20.94,10.51"/><path class="cls-8" d="M110.49,136.54c2.56.14,5.7.78,7.2,2.72a4.74,4.74,0,0,1,.7,4.09c-1.13,4.59-5.89,6.11-10.64,7.05"/><path class="cls-21" d="M60.11,149.38c0,.76.43,1.38,1,1.38s1-.62,1-1.38-.43-1.37-1-1.37-1,.61-1,1.37"/><path class="cls-21" d="M53.66,149.38c0,.76.43,1.38,1,1.38s1-.62,1-1.38-.43-1.37-1-1.37-1,.61-1,1.37"/><path class="cls-8" d="M43.48,140.69l-3.57-2.58c-6.66,5.35.51,12.2.51,12.2"/><path class="cls-8" d="M84.65,90.69C71.71,91.12,58,92.19,51.72,93l-.19,0-1.16.16-.37.06a7.32,7.32,0,0,0-1.66.36s-.06.05,0,.08l.05,0c1.18.53.79,6.3.19,11.45-.07.61-.14,1.21-.21,1.79,0,1,0,2.06,0,3.09v1.56a5,5,0,0,0,0,1.34,1.17,1.17,0,0,1,.06.2c0,.37.15.1.15.18a11.22,11.22,0,0,0,1.42,0l1.6,0,4.65-.09,5.91-.11,6.8-.13,7.34-.14,7.53-.14,7.36-.14,6.85-.13,6-.11,4.73-.09c.71,0,1.43,0,2.15,0,.53,0,1.23,0,1.83,0"/><path class="cls-8" d="M111.92,112.13c.25,0,.51,0,.76,0l.42,0a.51.51,0,0,1-.24-.1,1.22,1.22,0,0,1-.17-.15,2.55,2.55,0,0,1-.3-.43,4.53,4.53,0,0,1-.28-.59,9.14,9.14,0,0,1-.33-1.78"/><path class="cls-8" d="M72.43,185.71a6.7,6.7,0,0,1,.33-5.52,5,5,0,0,1,2-2.09,6,6,0,0,1,4.52-.18A10.41,10.41,0,0,1,83,180.28a17.34,17.34,0,0,1,5.7,11.77c.11,2.32-.28,4.7.54,6.9,1,2.8,3.86,4.81,5.89,7.2a23,23,0,0,1-7.49-.69A13.46,13.46,0,0,1,77.2,195.35c-.48-1.48-.85-3-1.31-4.48-.41-1.32-.65-2.88-2.28-3.49a1.56,1.56,0,0,0-.53-.12c-.17,0-.28-.47-.28-.47-.15-.58-.28-.65-.39-1.15"/><path class="cls-8" d="M56.35,177.36h-.08A8.85,8.85,0,0,0,51,180.09a18.29,18.29,0,0,0-3.71,4.76l0,0a16.45,16.45,0,0,0-2,7c-.1,2.31.29,4.69-.53,6.9-1.05,2.8-3.86,4.81-5.89,7.19a22.7,22.7,0,0,0,7.49-.69,15.27,15.27,0,0,0,6.7-3.49,15.24,15.24,0,0,0,3.78-6.61c.48-1.48.85-3,1.31-4.48.41-1.32.89-3.05,2.52-3.67"/><path class="cls-8" d="M61.18,178.71a1.31,1.31,0,0,0-.24-.47.28.28,0,0,0-.07-.09"/><path class="cls-11" d="M80.23,178.64a6.83,6.83,0,0,0-1.61-.6,9.35,9.35,0,0,0-1-.16,6.2,6.2,0,0,0-.76,0,5.07,5.07,0,0,0-.77.1,4.13,4.13,0,0,0-.91.28,4,4,0,0,0-.41.21l-.1.07a3.93,3.93,0,0,0-.79.65s5.43-.17,6.34-.55"/><path class="cls-11" d="M60,179a.6.6,0,0,0,0-1.19A.6.6,0,0,0,60,179"/><path class="cls-11" d="M59.62,178.78a.6.6,0,0,0,0-1.19.6.6,0,0,0,0,1.19"/><path class="cls-11" d="M59.62,177.67l-.06,0-.06-.05h0l-.14-.06h0l-.16,0h0a1,1,0,0,0-.17,0,.38.38,0,0,0-.2.1.35.35,0,0,0-.15.17.45.45,0,0,0-.08.22.49.49,0,0,0,0,.24l.06.14a.53.53,0,0,0,.21.21l.14.06a.58.58,0,0,0,.32,0h0l-.16,0h0l-.16,0h0l-.14-.06h0l-.12-.09h0a.39.39,0,0,0,.19.12.55.55,0,0,0,.46,0,.39.39,0,0,0,.19-.12l.09-.12a.52.52,0,0,0,.08-.3.88.88,0,0,0,0-.16.61.61,0,0,0-.15-.26"/><path class="cls-11" d="M59,177.48h0a.44.44,0,0,0-.22-.07.49.49,0,0,0-.24,0,.43.43,0,0,0-.2.11.49.49,0,0,0-.16.16l-.06.15a.81.81,0,0,0,0,.31l.06.15a.63.63,0,0,0,.22.21h0a.44.44,0,0,0,.22.07.49.49,0,0,0,.24,0,.56.56,0,0,0,.2-.11.5.5,0,0,0,.15-.17l.06-.14a.55.55,0,0,0,0-.31l-.06-.15a.53.53,0,0,0-.21-.21"/><path class="cls-11" d="M58.23,178.55a.6.6,0,0,0,0-1.19.6.6,0,0,0,0,1.19"/><path class="cls-11" d="M57.88,178.6a.6.6,0,0,0,0-1.19.6.6,0,0,0,0,1.19"/><path class="cls-11" d="M57.7,178.56a.6.6,0,0,0,0-1.19.6.6,0,0,0,0,1.19"/><path class="cls-11" d="M57.56,178.54a.6.6,0,0,0,0-1.19.6.6,0,0,0,0,1.19"/><path class="cls-11" d="M57.48,178.54a.6.6,0,0,0,0-1.19.6.6,0,0,0,0,1.19"/><path class="cls-11" d="M57.41,178.53a.6.6,0,0,0,0-1.19.6.6,0,0,0,0,1.19"/><path class="cls-22" d="M66,157a7.31,7.31,0,0,0,2-.18,35.68,35.68,0,0,0,8.25-1.7,21.7,21.7,0,0,0,6.46-3.89,3.3,3.3,0,0,1,1.6-.81c1.83-.21,1.64,2.45-.1,2.37.2.78,1.49.29,1.91-.12,1.8-1.76-.32-3.39-2.5-2.51a27,27,0,0,0-4.83,3,15.16,15.16,0,0,1-5.1,2.06,34.77,34.77,0,0,1-7,1.24s-1.34,0-.71.54"/><path class="cls-22" d="M49.73,155.79a7.31,7.31,0,0,1-2-.18,35.68,35.68,0,0,1-8.25-1.7A21.7,21.7,0,0,1,33,150a3.3,3.3,0,0,0-1.6-.81c-1.83-.21-1.64,2.45.1,2.37-.2.78-1.49.29-1.91-.12-1.8-1.76.32-3.39,2.5-2.51a27,27,0,0,1,4.83,3A15.16,15.16,0,0,0,42,154a34.77,34.77,0,0,0,7,1.24s1.34,0,.71.54"/><path class="cls-8" d="M48.32,111.31s63.52-1.74,63.79-1.15"/><path class="cls-8" d="M48.9,95.14s19.46-1.85,37.29-2.42"/><path class="cls-8" d="M48.3,93.65c.17-10.84-6.75-20.87-5.47-31.86A22.22,22.22,0,0,1,53.62,45a21.59,21.59,0,0,1,16.11-2c2.48.72,3.33,2.35,5.66,1.89,1-.2,3.33-1.87,4.2-2.39,8.29-5,17.86-5.17,23.85,2.64,1.28,1.62,5.32,2,8.37,3"/><path class="cls-10" d="M102.9,44.45s2.87,6.41,2.47,8.66c0,0-.32-5.28-1.14-7.3"/><path class="cls-10" d="M71.34,49.72S63.6,66.38,66.48,71.88c0,0-1.4-5.35,4.86-22.16"/><path class="cls-10" d="M65.16,73.21s4,17.52,6.67,18.15c0,0-3.79-2-6.67-18.15"/><path class="cls-10" d="M67.42,84.94l4,6.27a38.43,38.43,0,0,1-4-6.27"/><path class="cls-10" d="M48.54,80.39S53.57,89,51.72,93c0,0,3-2.49-3.18-12.58"/><path class="cls-10" d="M52.86,86s-.47,6.69-.94,6.72c0,0,1.4-1.53.94-6.72"/><path class="cls-3" d="M250.07,92.77s-8.81-1.19-8.94-1.1"/><path class="cls-3" d="M250.07,76.67s-8.39,15-8.94,15S250.38,93,250.38,93s15.34-15.26,13.73-21.92C263.37,68,261,74.9,261,74.9s-10,14.56-12.15,14.24,1.22-12.47,1.22-12.47"/><path class="cls-3" d="M179.76,82s9.16,8,10.58,8.25c1.67.33-2.15.41-2.15.41s-7.06-4.59-8.43-8.66"/><path class="cls-3" d="M177.26,88.88s6.64,2.25,9.49,2-1.44.88-1.44.88-7-1.06-8.05-2.92"/><path class="cls-3" d="M185.66,91.39a90.44,90.44,0,0,1-14.34,1c-4-.09-1.07-.17-3.3-1.66"/><path class="cls-3" d="M171,90.85a73.6,73.6,0,0,0,14.22.28"/><path class="cls-11" d="M219,177.77a8.11,8.11,0,0,0-2.22,1l-.17.17-.69.7c-.46.49-.91,1-1.36,1.47s-1,1.13-1.46,1.71l-.24.3a13.18,13.18,0,0,0-.71,1.34l-.18,0-.64-.11-9.45-2.63s-.41-.05-1.06-.18c-1.78-.37-5.45-1.38-7.83-3.79a3.62,3.62,0,0,1-.83-1.26c-1.12-3,3.13-6.26,3.13-6.26a22.12,22.12,0,0,1,4-.14,1.68,1.68,0,0,1,1.07.36.27.27,0,0,1,.06.17c0,.74,7.51,5.35,18.58,7.16"/><path class="cls-11" d="M255.64,182.11s0,.09,0,.13c-.41.85-1.91,1.54-3.89,2.08-.34.1-.7.19-1.07.28a88.41,88.41,0,0,1-12.19,1.62l-.44,0a6.9,6.9,0,0,1-.63.42c-2.44,1.36-6.18,1-8.45.62h0c-1.18-.2-2-.42-2-.42l-.47-.07-.57-.1a1.3,1.3,0,0,1,.28,0,10.32,10.32,0,0,0,.39-1.63c.43-5.63-.39-6.14-.39-6.14-.34-.19-.67-.35-1-.5l.41,0a52,52,0,0,0,6.91-.14c1.12-.1,2.17-.21,3.16-.33l.35,0,1-.13,1-.15c1.7-.26,3.22-.55,4.57-.85,7.55-1.69,10-3.9,11.29-4.16a.75.75,0,0,1,.47,0,.44.44,0,0,1,.16.06c.76.43,1.37,2,1.63,3.88a10.74,10.74,0,0,1-.54,5.53"/><path class="cls-12" d="M194.75,170.64s18.07,9.87,23.54,7.32c0,0-15.11-3.63-18.6-7.34,0,0-4.35-.22-4.47-.56s-.47.58-.47.58"/><path class="cls-12" d="M198.06,172.33s-2.38-.88-1.4.6a20.73,20.73,0,0,0,2.47,2.92s-4.55-.62-6.45-3.12c0,0,1.18-2.24,1.86-2.23s3.52,1.83,3.52,1.83"/><path class="cls-12" d="M217.24,178.26s-.19.27-.37.45l-.16.17-.69.7c-.47.48-.92,1-1.37,1.47s-1,1.13-1.46,1.71l-.24.3-.46.57c-.12.16-.48.51-.42.75a3,3,0,0,1-.16-1.81,3.54,3.54,0,0,1,.65-1.49,5.74,5.74,0,0,1,.7-.78,12.2,12.2,0,0,1,2.09-1.42,5.91,5.91,0,0,1,1.28-.58l.11,0a1.06,1.06,0,0,1,.5,0"/><path class="cls-12" d="M214.34,178.2s1.73.14-.85,1.39-8.27-.75-8.27-.75a10.88,10.88,0,0,0,7.18,2.3l1.14,0,2.89-2.55s1.18-.88-2.09-.43"/><path class="cls-11" d="M219,177.73a14.08,14.08,0,0,0-8.07,9.82c-1.88,7.6-.56,7.82-.56,7.82s-.26,4.63-2.67,6-.13.16-.13.16-3.48,4-3.82,3.89,8,1,12.38-2.61,6.56-9.73,6.48-10.87,1.48-5,2.86-5.33,2-7,1-7.5-3.91-2.53-5.17-1.95a5.22,5.22,0,0,1-2.33.52"/><path class="cls-12" d="M214.55,197s5.58-8,8.55-11.79,2.8.75,2.8.75,1.49-3.16.65-4.37c-.53-.77-6.73.15-12,15.41"/><path class="cls-13" d="M225.9,179.63a13.81,13.81,0,0,1,1.25,2.64,2.56,2.56,0,0,0-.6-.72c-1.4-.94-4.3,2.42-4.87,3.21a41.38,41.38,0,0,0-4.43,7.5c-1.33,2.89-2.27,4.8-5,6.81,1.34-1.15,1.06-1.43,1.92-2.82a19.5,19.5,0,0,0,2.2-5.14c.37-1.41.56-2.84,1-4.22,1.15-3.3,4.82-5.06,8.47-6.36a11.48,11.48,0,0,0-.73-2.1c-.19-.11.73,1.2.73,1.2"/><path class="cls-13" d="M224.86,181.08s1.54-1.45.48-2.66c-.55-.63,1.06,2.1,1.06,2.1Z"/><path class="cls-13" d="M225.47,181.31s1.69,1.95.7,3.71c0,.13,1.76-2.64.53-3.84-1.07-1-1.23.13-1.23.13"/><path class="cls-11" d="M237.92,178.33s2.25,7.5.52,8.17c0,0,2.4.59,3.43,7.28,0,0,2.12,6.48,4.85,8.14a20.55,20.55,0,0,0,12.83,3.5s.2-1.1-2.32-3-4.13-6-3.57-8.32-.79-7.85-1.13-8-2.05-4.77-3.34-5.55c0,0-3.86-3.73-5.53-3.57,0,0-3.64-.76-4.53-.07a12.05,12.05,0,0,1-1.34.93Z"/><path class="cls-12" d="M238.93,185.65s.33-2.44,1.81-1.8,6.07,10.28,6.07,10.28-1.78-11.6-5.81-11.6c-3.3,0-1.74,1.79-1.74,1.79"/><path class="cls-13" d="M238.44,179.12s.81,2,1.9,2.06,6.26.71,7,8,2.34,10,3.41,10.36a10,10,0,0,1-4.21-6.77c-.48-4.41-4-10.08-5.81-10.09s-1.58,2.35-1.58,2.35"/><path class="cls-12" d="M254.84,173.65s-4.07,2.95-6.93,3.35.64.87.64.87l-2.3.55-2.94-1.78s10.53-2.83,10.6-4,.93.68.93.68Z"/><path class="cls-12" d="M254.06,174.18s2.24,4.24.18,4.45c0,0,1.4,0,1.73-.67s-1.14-4.31-1.14-4.31"/><path class="cls-12" d="M248.48,180.48s2.71-.08,3-.58-1.2,1.82-2,1.44a1.61,1.61,0,0,1-1-.86"/><path class="cls-12" d="M229,178.53c0,.09.07.18.16.34a5.7,5.7,0,0,1,.61,1.5,13.86,13.86,0,0,1,.16,1.58,1.49,1.49,0,0,0,.08-.67c0-.28,0-.57,0-.85,0-.58,0-1.17,0-1.75,0-.29-.14-.64-.56-.52a1.39,1.39,0,0,0-.36.2.37.37,0,0,0-.15.17"/><path class="cls-12" d="M230.61,182.92c0,.39-.15,1.19-.2,1.58s-.12.91-.21,1.37-.07,1.26-.8,1.38c-.36.06-.45-.07-.44-.24a1.17,1.17,0,0,1,.12-.31l.4-.62a8.38,8.38,0,0,0,.59-1.25,8.11,8.11,0,0,0,.37-1.25"/><path class="cls-12" d="M230.61,187.18s1.11-1.14.95-1.37c0,0,0,1.41-.62,1.46s-.33-.09-.33-.09"/><path class="cls-12" d="M236.62,186.7s1-1.34.68-1.87l0,0s.56,1.51-.29,1.74-.37.15-.37.15"/><path class="cls-12" d="M232.44,178.63a8.36,8.36,0,0,1,.64,2c-.06.41.3-2.13-.14-2.25s-.5.21-.5.21"/><path class="cls-12" d="M235.28,178.24s1.6,3.48,1.36,4.08c0,0,.06-3.95-.56-4.17s-.8.09-.8.09"/><path class="cls-12" d="M225.63,178.75s3,2.21.55,7.95c0,0,2.89-1.89,1.42-6,0,0-.64-2-1.7-2.08-.75-.08-.27.12-.27.12"/><path class="cls-3" d="M185.61,91.88l1.42-.53s3.82,20,.33,20-1.57-.07-1.57-.07,3.94-6.72-.18-19.37"/><path class="cls-3" d="M241.91,91.8l.14.42c.66,2,3.32,10.43,2.3,14.51-1.15,4.64-1.59,5.86-1.59,5.86l7.7.14s-.71-20.17-.39-20"/><path class="cls-3" d="M244.8,104s1.76,1.67-6,2.39-41,3.31-50.45,2.08c0,0-.62,3.36-1.91,3.11s56.35,1,56.35,1,2.48-6.34,2-8.63"/><path class="cls-8" d="M212.15,184.47a.93.93,0,0,0-.05.1c-3.93-.88-7.93-1.94-11.28-3a27.2,27.2,0,0,1-7.1-3.19,5,5,0,0,1-1.55-1.86c-1.46-3.33,3-6.6,3-6.6"/><path class="cls-8" d="M238.05,186.42l-.15.06-.54.18c-2.28.77-2.91,1.29-8.45.62h0l-1.3-.16c-.64-.09-1.38-.24-2.13-.35"/><path class="cls-8" d="M254.22,172.42a2.53,2.53,0,0,1,.16.22,11,11,0,0,1,1.79,3.94,9.88,9.88,0,0,1,0,4.59,2.18,2.18,0,0,1-.51.94c-.86,1-1.6,1.57-3.94,2.21"/><path class="cls-6" d="M176.87,127.05a.32.32,0,0,1,0,.06s-.45,0,0-.06"/><path class="cls-6" d="M250.65,104.52c0,.25,0,.5,0,.74v1.09c-.07-.57-.14-1.18-.21-1.78l.22,0"/><path class="cls-8" d="M237.91,186.47a1.5,1.5,0,0,0,.52-.26c2.28-1.61-.82-8.35-.82-8.35"/><path class="cls-23" d="M186.29,111.54c.6,0,1.3,0,1.83,0l2.15,0,4.73.09,6,.11,6.85.13,7.36.14,7.53.15,7.34.14,6.81.13,5.9.11,4.66.08,3,.06,2.35,4s3.33,6.1,3.29,8.08c0,0,1.1,4.41.27,6.09,0,0-1.56-8.5-3.72-9.8a6.55,6.55,0,0,0-5.36-1.53c-3.45.44-10.72,7.25-10.72,7.25s-3.79-6.41-6.45-7.64A17.28,17.28,0,0,0,219,116.39c-5.78.79-5.16,1-8.13,2.36s-6.13,6.24-6.13,6.24-2.62,3.6-2.31,6.28a43.8,43.8,0,0,1,.1,7.64,3.44,3.44,0,0,1-2.52,2.52,10.51,10.51,0,0,0-3.32,1.25s-2.31-7.34-2.94-7.85c0,0-2.86-4.6-5-5.52s-4.8-2.93-9-2.56c-1.73.16-2.53.24-2.86.3.12-.34.71-2,1.45-3.9,0,0,0,0,0,0,.93-2.35,2.11-4.92,2.86-5.3,0,0,3.28-4.57,4.86-6.31"/><path class="cls-6" d="M257.67,103.42s0,0-.07.08.08-.15.07-.08"/><path class="cls-23" d="M179.72,152.43l5,8.11s7.82,9.91,14.37,10c0,0-5.88-5.56-6.12-6.88,0,0-3.17-2.18-2.65-11.29,0,0-8.27,1.28-10.64.1"/><path class="cls-24" d="M179.72,152.6s9.68,1.14,10.41-.45-.76,1.48-.27,3.16a15.1,15.1,0,0,0,.16,2.26c.13.25-8.87-2-9.57-3.24a4.91,4.91,0,0,1-.73-1.73"/><path class="cls-9" d="M259,137.92s6.15,3.16-.3,11.36c0,0-3.76-3-4.48-2.9l.6-3.91.68-3.27"/><path class="cls-16" d="M190.78,151.34c-.85,2.71-9.47,1.52-11.49,1a15.57,15.57,0,0,1-9.24-6.17,15.11,15.11,0,0,1-2.15-6.06,11.8,11.8,0,0,1,1.13-7.76c2.46-4.17,8.57-6,13.76-5.16,8.6,1.43,12.49,9.24,13.7,15.86"/><path class="cls-17" d="M190.78,151.34c-.85,2.71-9.47,1.52-11.49,1a15.57,15.57,0,0,1-9.24-6.17,15.11,15.11,0,0,1-2.15-6.06,11.8,11.8,0,0,1,1.13-7.76c2.46-4.17,8.57-6,13.76-5.16,8.6,1.43,12.49,9.24,13.7,15.86"/><path class="cls-16" d="M230.83,144.44c-1.87.52-3.83,1.55-4.27,3.09a11.68,11.68,0,0,1-4.51.91,11.94,11.94,0,1,1,8.78-4m11.79,32.38a44.84,44.84,0,0,0,8.46-2.75,31.23,31.23,0,0,0,2.83-1.43l.33-.19a24.5,24.5,0,0,0,4.51-3.36c.46-.43,1.51-2.22,2.1-2.42,0,0,5.63-1.89,3.9-7a12.26,12.26,0,0,0,1-1.29,4.57,4.57,0,0,0,1-2.71,2.45,2.45,0,0,0-1.79-2.22,4.65,4.65,0,0,0-3.48.92c-.37-.72-.76-1.45-1.19-2.17-1.49-2.51-3.42-4.85-6.46-5.72.36-1.3.72-2.66,1.06-4a10.26,10.26,0,0,1-3,3.32,6.66,6.66,0,0,0-.75-.52,12.37,12.37,0,0,0-4.25-1.23l-.18,0c-.83-.12-1.67-.22-2.52-.31-1.37-.13-2.73-.23-4.1-.24h-1.25a10.93,10.93,0,0,1-2.08-6.46c0-5.8,4.39-10.5,9.79-10.5a10,10,0,0,1,9.66,8.78c0-.27.06-.54.08-.81a24.85,24.85,0,0,0-.26-6.35c-.53-2.78-2.05-6.66-5.23-8-5.07-2.18-11.16,4.39-14.1,7.13-1.61-4.71-6.14-8.62-11.65-10A18.75,18.75,0,0,0,207,122a15.44,15.44,0,0,0-4.15,7.75c-.63,3.21.86,6.72-.4,9.83-.69,1.7-3,1.85-4.64,2.69a13.76,13.76,0,0,0-1.36.78,13.58,13.58,0,0,0-5.71,8.28v0a15.23,15.23,0,0,0,.39,8.41,22.88,22.88,0,0,0,8.53,10.87,39.33,39.33,0,0,0,15.44,6.52,70,70,0,0,0,20.52.79l2.4-.32m0,0c.8-1.08,2.94-1.09,4.57-.85"/><path class="cls-17" d="M230.83,144.44c-1.87.52-3.83,1.55-4.27,3.09a11.68,11.68,0,0,1-4.51.91,11.94,11.94,0,1,1,8.78-4Zm11.79,32.38a44.84,44.84,0,0,0,8.46-2.75,31.23,31.23,0,0,0,2.83-1.43l.33-.19a24.5,24.5,0,0,0,4.51-3.36c.46-.43,1.51-2.22,2.1-2.42,0,0,5.63-1.89,3.9-7a12.26,12.26,0,0,0,1-1.29,4.57,4.57,0,0,0,1-2.71,2.45,2.45,0,0,0-1.79-2.22,4.65,4.65,0,0,0-3.48.92c-.37-.72-.76-1.45-1.19-2.17-1.49-2.51-3.42-4.85-6.46-5.72.36-1.3.72-2.66,1.06-4a10.26,10.26,0,0,1-3,3.32,6.66,6.66,0,0,0-.75-.52,12.37,12.37,0,0,0-4.25-1.23l-.18,0c-.83-.12-1.67-.22-2.52-.31-1.37-.13-2.73-.23-4.1-.24h-1.25a10.93,10.93,0,0,1-2.08-6.46c0-5.8,4.39-10.5,9.79-10.5a10,10,0,0,1,9.66,8.78c0-.27.06-.54.08-.81a24.85,24.85,0,0,0-.26-6.35c-.53-2.78-2.05-6.66-5.23-8-5.07-2.18-11.16,4.39-14.1,7.13-1.61-4.71-6.14-8.62-11.65-10A18.75,18.75,0,0,0,207,122a15.44,15.44,0,0,0-4.15,7.75c-.63,3.21.86,6.72-.4,9.83-.69,1.7-3,1.85-4.64,2.69a13.76,13.76,0,0,0-1.36.78,13.58,13.58,0,0,0-5.71,8.28v0a15.23,15.23,0,0,0,.39,8.41,22.88,22.88,0,0,0,8.53,10.87,39.33,39.33,0,0,0,15.44,6.52,70,70,0,0,0,20.52.79l2.4-.32m0,0c.8-1.08,2.94-1.09,4.57-.85"/><path class="cls-16" d="M256,139.49l.58-5.13s6.63-4.23,7.67-4.25,3.6-1.48,5.36-.3,1.6-1.11,4.64,6.28c0,0,1.71,6.24-1.17,9.2a12.05,12.05,0,0,1-6.35,5.18,38.66,38.66,0,0,1-5.95,1.67l-1.79-2.4s3.61-4.94,2.93-6.43c0,0-.47-5-2.39-5.39s-3.53,1.57-3.53,1.57"/><path class="cls-16" d="M200.33,159.3a11.89,11.89,0,0,0,4-1.37c1.16-.75,2-2.06,1.51-3.24"/><path class="cls-17" d="M200.33,159.3a11.89,11.89,0,0,0,4-1.37c1.16-.75,2-2.06,1.51-3.24"/><path class="cls-16" d="M230.78,144.46l.43-.13a33.61,33.61,0,0,1,7.56-.89"/><path class="cls-17" d="M230.78,144.46l.43-.13a33.61,33.61,0,0,1,7.56-.89"/><path class="cls-16" d="M230.11,152.19c-1.9-1-3.87-2.46-3.64-4.32,0-.13.05-.26.08-.38"/><path class="cls-17" d="M230.11,152.19c-1.9-1-3.87-2.46-3.64-4.32,0-.13.05-.26.08-.38"/><path class="cls-16" d="M251.85,145.82a3.14,3.14,0,0,1,1.36,2.74c-.18,1.56-1.78,2.68-3.25,3.61"/><path class="cls-17" d="M251.85,145.82a3.14,3.14,0,0,1,1.36,2.74c-.18,1.56-1.78,2.68-3.25,3.61"/><path class="cls-16" d="M264.85,159.58c-2.6,3.14-6.81,5.13-11,6.33a57,57,0,0,1-12,1.82,76.21,76.21,0,0,1-17.61-.6c-7.39-1.23-14.56-4.15-19.61-9"/><path class="cls-17" d="M264.85,159.58c-2.6,3.14-6.81,5.13-11,6.33a57,57,0,0,1-12,1.82,76.21,76.21,0,0,1-17.61-.6c-7.39-1.23-14.56-4.15-19.61-9"/><path class="cls-8" d="M256.14,135.23a56.42,56.42,0,0,1-1.3,7.19"/><path class="cls-9" d="M191,149.56l2.4-4.16s-4.31-9.51-5.41-9.39-8.38,1.9-7.56,5.19,1.62,6.08,8.46,8.11Z"/><path class="cls-17" d="M256.22,134.42A36.33,36.33,0,0,1,264,130a10.45,10.45,0,0,1,3-.77,6.35,6.35,0,0,1,2.53.27,6.46,6.46,0,0,1,3.48,3.11c2,3.57,2.77,7.55,1.14,11.33-2.14,5-8,7.78-13.91,8.23"/><path class="cls-8" d="M226.56,147.49a11.72,11.72,0,0,1-4.51.91,12.07,12.07,0,1,1,11.8-12.07"/><path class="cls-25" d="M177.29,127l2.83-.25s7.32-14.12,9.44-15h-3.27a41.48,41.48,0,0,0-9.44,15.41Z"/><path class="cls-8" d="M239.51,143.39h-.74a10.93,10.93,0,0,1-2.08-6.46c0-5.8,4.39-10.49,9.79-10.49,4.87,0,9.67,3.76,9.66,8.78,0,.55-.13.9-.18,1.48a27.13,27.13,0,0,1-1.12,5.71c-.41,1.44-1.8,2.47-3,3.32a4.36,4.36,0,0,0-.75-.52,12.54,12.54,0,0,0-4.25-1.24l-.17,0c-.84-.12-1.68-.23-2.52-.31"/><path class="cls-8" d="M199.69,170.62H199s-8.27,1.37-19.74-18.29"/><path class="cls-9" d="M261.89,141l-.25-.36-2.09-3s3.56-3.2,5.66-3.37,3-.83,3.71,0a5.48,5.48,0,0,1,1.09,2.83v.84s-2.72,0-7.87,3.82"/><path class="cls-8" d="M250.65,112.56s8.82,12.4,5.65,20.11"/><path class="cls-8" d="M186.39,111.43a46.83,46.83,0,0,0-8.06,11.7s0,0,0,0c-.68,1.38-1.28,2.77-1.8,4.16"/><path class="cls-21" d="M210.92,137.92c0-4.48,3.27-8.11,7.3-8.11s7.3,3.63,7.3,8.11-3.27,8.11-7.3,8.11-7.3-3.63-7.3-8.11"/><path class="cls-19" d="M211.63,138.6c0-3.54,2.48-6.41,5.55-6.41s5.54,2.87,5.54,6.41-2.48,6.41-5.54,6.41-5.55-2.87-5.55-6.41"/><path class="cls-21" d="M248.85,137.82a7.29,7.29,0,0,1-2.79,5.93l-.17,0c-.84-.12-2-.23-2.89-.32a5.93,5.93,0,0,0,2.25-4.39c0-2.88-1.81-5.21-4.05-5.21s-3.82,2-4,4.65c0-.21,0-.41,0-.63,0-3.84,2.62-6.95,5.86-6.95s5.85,3.11,5.85,6.95"/><path class="cls-20" d="M245.25,138.91a5.66,5.66,0,0,1-1.88,4.4c-1.37-.13-2.74-.22-4.11-.24h-.51a5.78,5.78,0,0,1-1.61-4.15c0-.19,0-.37,0-.56.22-2.61,1.94-4.65,4-4.65s4.05,2.34,4.05,5.21"/><path class="cls-16" d="M238.51,143.41a51.81,51.81,0,0,1,6.4.32l2.58.36"/><path class="cls-17" d="M238.51,143.41a51.81,51.81,0,0,1,6.4.32l2.58.36"/><path class="cls-9" d="M174.05,134.26s3.17-3.35,6.57-3a9.76,9.76,0,0,1,5.2,2l2.35,2.34.14.18-6.41,2.16s-5.92-3.56-8.41-3.19Z"/><path class="cls-5" d="M218.22,134.26a2,2,0,1,0,2-2.07,2,2,0,0,0-2,2.07"/><path class="cls-5" d="M242.46,136a1.9,1.9,0,1,0,1.9-1.95,1.92,1.92,0,0,0-1.9,1.95"/><path class="cls-8" d="M255.89,139.86s1.33-1.07,3.17-2.32c4.63-3.11,12.52-7.27,10.84,2"/><path class="cls-8" d="M172.57,135.23s12-13.94,20.94,10.51"/><path class="cls-8" d="M188.48,136c-2.56.13-5.7.77-7.2,2.71a4.75,4.75,0,0,0-.7,4.1c1.13,4.59,5.89,6.1,10.64,7.05"/><path class="cls-21" d="M238.86,148.82c0,.76-.43,1.37-1,1.37s-1-.61-1-1.37.43-1.38,1-1.38,1,.62,1,1.38"/><path class="cls-21" d="M245.31,148.82c0,.76-.42,1.37-.95,1.37s-1-.61-1-1.37.43-1.38,1-1.38.95.62.95,1.38"/><path class="cls-8" d="M255.49,140.13l3.57-2.59c6.66,5.35-.51,12.2-.51,12.2"/><path class="cls-8" d="M186.29,111.54c.6,0,1.3,0,1.83,0l2.15,0,4.73.09,6,.11,6.85.13,7.36.14,7.53.15,7.34.14,6.81.13,5.9.11,4.66.08,3,0h0a0,0,0,0,0,0,0s0-.08,0-.12a.11.11,0,0,1,0,0l.05,0h0s0,0,0,0,0-.11.06-.16,0-.14,0-.21,0-.26,0-.4V109.3c0-1,0-2,0-3-.07-.57-.14-1.18-.21-1.78-.6-5.16-1-10.93.19-11.45l0,0s0,0,0-.07a6.83,6.83,0,0,0-1.67-.37l-.37,0-1.16-.16-.19,0c-12.67-1.57-56.39-4.4-61.32-.45,0,0,.07.4.08.45.06.41.13.82.19,1.23.27,1.81.51,3.62.69,5.43a61,61,0,0,1,.41,8c0,.46-.05.93-.11,1.4a9.24,9.24,0,0,1-.33,1.79,4.53,4.53,0,0,1-.28.59,2.47,2.47,0,0,1-.3.42,1.29,1.29,0,0,1-.17.16.63.63,0,0,1-.24.09l.42,0c.25,0,.51,0,.77,0"/><path class="cls-8" d="M253.69,60.22l0,0c-.12.48-.36-2.86-1.63-3.73a6.21,6.21,0,0,0-2.56-.89,20.76,20.76,0,0,0-7.49.49c-.28.06-4.3,1.13-4.44,1.13-1.63-2.08-6.57-3.59-9.29-4.19a28.25,28.25,0,0,0-11.07-.13,39.17,39.17,0,0,0-12.32,4.68c-.74.43-8.38,4.88-8,5.5-1.57-2.42-7.75-.63-10-.07"/><path class="cls-8" d="M171.73,92.62a109.87,109.87,0,0,0,14.43-.74c5.6-4.55,62.43,0,64.22,1.11,0,0,.05,0,0,.07,1.26-1,28.05-23.29,3.2-33"/><path class="cls-5" d="M254,60.26a5.36,5.36,0,0,1-.14.92l.09-.93H254"/><path class="cls-7" d="M254,60.26a5.36,5.36,0,0,1-.14.92l.09-.93Z"/><path class="cls-5" d="M254,60.26a5.36,5.36,0,0,1-.14.92l.09-.93H254"/><path class="cls-7" d="M254,60.26a5.36,5.36,0,0,1-.14.92l.09-.93Z"/><line class="cls-3" x1="186.41" y1="111.54" x2="186.05" y2="111.52"/><path class="cls-10" d="M240.54,92c3.55-1.47,10.57-17.64,10.57-17.64"/><path class="cls-10" d="M253.55,59.74l-.29.23s-.37,6.38-1.2,8.67,2.32-6.29,2.32-8.32"/><path class="cls-10" d="M227.18,90.82s12.7-19.45,10.67-26.18c0,0,2.07,9.85-9.32,26.15"/><path class="cls-10" d="M199,69s9,16.37,6.19,20.93c0,0,5-2.78-6.19-20.93"/><path class="cls-10" d="M206.31,89.93a11.42,11.42,0,0,0-.07-4.33S205.73,90,205.19,90"/><path class="cls-10" d="M179.38,81.26s7.68,8.84,14.34,8.89l-2.64.6s-7.39-2.78-11.73-9.33"/><path class="cls-10" d="M177,88.4s2.48,2.06,10.8,2.06c8.7,0-1.11.8-1.11.8S177,90.06,177,88.4"/><path class="cls-8" d="M226.55,185.14a6.72,6.72,0,0,0-.34-5.51,5,5,0,0,0-2-2.09,6,6,0,0,0-4.53-.19,10.57,10.57,0,0,0-3.73,2.37,17.34,17.34,0,0,0-5.7,11.77c-.11,2.31.28,4.69-.54,6.89-1.05,2.81-3.86,4.82-5.89,7.2a22.7,22.7,0,0,0,7.49-.69,15.48,15.48,0,0,0,6.7-3.49,15.24,15.24,0,0,0,3.78-6.61c.48-1.49.85-3,1.31-4.49.41-1.32.65-2.87,2.28-3.49a1.85,1.85,0,0,1,.53-.12c.17,0,.28-.47.28-.47.15-.58.28-.64.39-1.15"/><path class="cls-8" d="M238.29,186.44c1.63.62,2.11,2.35,2.52,3.67.46,1.49.83,3,1.31,4.49a15.29,15.29,0,0,0,3.78,6.61,15.48,15.48,0,0,0,6.7,3.49,22.7,22.7,0,0,0,7.49.69c-2-2.38-4.84-4.4-5.89-7.2-.82-2.2-.42-4.58-.53-6.9a16.45,16.45,0,0,0-2-7l0,0a18.46,18.46,0,0,0-3.71-4.76,8.89,8.89,0,0,0-5.26-2.71h-.08"/><path class="cls-8" d="M238.1,177.59s-.07.08-.07.08a1.44,1.44,0,0,0-.24.48"/><path class="cls-11" d="M218.74,178.07a7.33,7.33,0,0,1,1.61-.6,7.55,7.55,0,0,1,1-.15,5.72,5.72,0,0,1,.76,0,5.07,5.07,0,0,1,.77.1,4.33,4.33,0,0,1,.91.29,4,4,0,0,1,.41.21l.1.06a3.74,3.74,0,0,1,.79.66s-5.43-.18-6.34-.56"/><path class="cls-10" d="M196.6,62.77v.42a3.59,3.59,0,0,1,.82,1.69c0,.68-.06-2-.12-2.2"/><path class="cls-11" d="M238.93,178.41a.6.6,0,0,0,0-1.19.6.6,0,0,0,0,1.19"/><path class="cls-11" d="M239.35,178.21a.6.6,0,0,0,0-1.19.6.6,0,0,0,0,1.19"/><path class="cls-11" d="M240.19,177.94h0l-.12.1h0l-.14.06h0l-.16,0h0l-.16,0h0a.49.49,0,0,0,.24,0,.44.44,0,0,0,.22-.07.5.5,0,0,0,.17-.15.53.53,0,0,0,.11-.21,1,1,0,0,1,0-.16.67.67,0,0,0-.08-.3l-.1-.12a.61.61,0,0,0-.26-.15h-.34l-.08,0a.67.67,0,0,0-.2.13.44.44,0,0,0-.12.19.55.55,0,0,0,0,.46.35.35,0,0,0,.12.19l.12.1a.61.61,0,0,0,.3.08l.16,0a.54.54,0,0,0,.26-.16"/><path class="cls-11" d="M240.6,177.94h0a.35.35,0,0,0,.17-.15.49.49,0,0,0,.11-.2.65.65,0,0,0,0-.24.57.57,0,0,0-.07-.22l-.1-.12a.53.53,0,0,0-.26-.15l-.16,0a.54.54,0,0,0-.3.08h0a.52.52,0,0,0-.17.16.47.47,0,0,0-.1.2.39.39,0,0,0,0,.24.44.44,0,0,0,.07.22l.09.12a.68.68,0,0,0,.26.15l.16,0a.52.52,0,0,0,.3-.08"/><path class="cls-11" d="M240.74,178a.6.6,0,0,0,0-1.19.6.6,0,0,0,0,1.19"/><path class="cls-11" d="M241.09,178a.6.6,0,0,0,0-1.19.6.6,0,0,0,0,1.19"/><path class="cls-11" d="M241.27,178a.6.6,0,0,0,0-1.19.6.6,0,0,0,0,1.19"/><path class="cls-11" d="M241.41,178a.6.6,0,0,0,0-1.19.6.6,0,0,0,0,1.19"/><path class="cls-11" d="M241.49,178a.6.6,0,0,0,0-1.19.6.6,0,0,0,0,1.19"/><path class="cls-11" d="M241.56,178a.6.6,0,0,0,0-1.19.6.6,0,0,0,0,1.19"/><path class="cls-8" d="M186.31,111.48c-.09.07.2,0,.2,0"/><path class="cls-12" d="M147.37,178.41a2.1,2.1,0,0,0,2.41.2,12.54,12.54,0,0,0,1.39-1.07s-.64,1.79,0,1.83a.92.92,0,0,1,.83.55s-5.51-.11-4.63-1.51"/><path class="cls-12" d="M155.57,175.86s1.12,3,.48,3.19-2.2,1.19-2.6.91-.2-1.35-.2-1.35-.35,1.64-.9,1.33a1,1,0,0,0-.94-.1s3.36.64,4.48.17,3.85-1.73,3.68-2l-.56-1s.31.8-.26.87-1.42,1.37-1.62.58a12.18,12.18,0,0,0-1.56-2.55"/><path class="cls-8" d="M159.57,178.14a4.58,4.58,0,0,1-.94.74,7.2,7.2,0,0,1-1.21.51,14.62,14.62,0,0,1-5.07.55c-2-.1-4-.49-6-.78"/><path class="cls-3" d="M138.28,81.52c-.24.3-1.52,2.34-7.2,5.68s-11.4,6.16-12,7-.26.7-.26.7,14.24-7.55,15.16-8c0,0,12.74-4.78,16.34-4.57l2.84-.44s-13.94-.72-14.87-.42"/><path class="cls-16" d="M146.61,125.86s-14.63-3.54-17.35-2.33-6.9,2.31-6.36,13.62c0,0-.18,4.88-3.18,6.26s-2.4,10.38-1.74,10.75,2.67,8.28,8.3,10.05c0,0,7.09,4,11.09,4.82s12.33,3.19,16,2,8.7-.94,14.47-4.62,11-7.73,11-7.73,6-5.7,5.88-7.69,3.12-6.68-.28-12.74c0,0-4.76-5.33-7-5.52s-3.71-7.84-3.56-8.69-3.6-7.31-6.82-8.33-7.19-3.3-11.06-1.28-7.18,3.76-7.94,8.26-1.33,3.19-1.33,3.19"/><path class="cls-5" d="M158.05,120.51s-3.84.59-5,2.35-4,5.58-2.77,8.63a32.52,32.52,0,0,0,3.5,6.36c.11,0,2.72.77,2.72.77l2,1.6,2.09.22s4.53-.68,4.74-1.09,3.37-4.32,3.1-4.86,1.2-2.8.57-4-.89-4-1.32-4.4-2.24-3.46-3-3.68-3.91-2.64-6.63-1.89"/><path class="cls-16" d="M179.12,133.08s.45-13.49,7.11-14.2c0,0,4.51-1.23,6.43-.76a27.47,27.47,0,0,1,5.12,2.35l2.14,3.21.78,3.57-.2,4L199,134.78l-1.53,1.78-3.11,2.14-3.57,1.14a39.72,39.72,0,0,1-4.41.6,9.06,9.06,0,0,1-1.3-.6s-4.21-6.38-6-6.76"/><path class="cls-16" d="M120.32,142.5s-3.76-8.11-6.56-9.12c0,0-3.75-2.66-6.75-2.35s-7.09.79-7.74,2.77-3.11,2.29-2.36,6.74S99,146.25,99,146.25l2.61,3.06s4.78,3,5.88,2.93,6.63-.26,7.31-.45a14,14,0,0,0,2.35-1.32l.66-4.26,2.49-3.37"/><path class="cls-14" d="M185.28,140.73s1.64,6.61.2,8.45c0,0,3-6.54,2.27-8s0-.63,0-.63l-2.47-.32Z"/><path class="cls-4" d="M114.9,152s3.67,5.26,4.27,5.31c0,0-1.78-5.22-1.83-6.08s-2.44.77-2.44.77"/><path class="cls-14" d="M115.91,154.29l3.52,3.17-1.56-3.58a16.39,16.39,0,0,1-2.28-.24c-.32-.14.32.65.32.65"/><path class="cls-4" d="M185.4,140.14l2.34.47s-.6,1.82-.58,1.86-1.46-.18-1.52-.69-.24-1.64-.24-1.64"/><line class="cls-14" x1="114.14" y1="133.67" x2="114.36" y2="130.58"/><path class="cls-14" d="M114.77,127.36s-.59,4.35-.52,5.1-.86.07,1.22,2A9.22,9.22,0,0,1,118,138l2.54,4.48s2.4-2.29,2.32-3.84-.14-6.17.17-6.74c0,0,1.06-6.35,3.12-7s2-2.21,8.21-1.29S146.91,126,146.91,126s2.66-9.32,6.16-10.33c0,0,4.46-2,7.72-1.73a15.62,15.62,0,0,1,8.18,3c2.11,1.65,4.73,6,4.83,7.33s.91,6.5,1.5,6.54.88,1.72,2.35,2,1.45.67,1.45.67,0-5.74.56-6c0,0,1.57-5.06,2.42-5.34s-2-6-2-6a47.49,47.49,0,0,0-5.31-5.53c-1.86-1.36-8-5.35-10.23-5.78,0,0-6.4-2.19-10.08-2.47s-12.6-.43-17.73,1.69-13.56,6.34-16.83,11.75-5.39,11.26-5.1,11.61"/><path class="cls-5" d="M109.69,105.9s1.83,4.5,1.94,5,1.76,11.94,2.46,12.48a1.79,1.79,0,0,1,.59,1.5l8.17-1.5,25.26-5.23L158.28,116l15.63-3.4,3.14-.86a108.2,108.2,0,0,1-3.62-11c-.91-4.06-2.21-8.13-2.21-8.13s-5.51-1.42-9.58-.33-54.17,12-51.95,13.63"/><path class="cls-15" d="M115.21,124.85l3.82-.8s-3.68,9.11-2.28,11.84l-2.39-2.3s.09-8.58.85-8.74"/><path class="cls-11" d="M120.88,159.66s-.9-.33-2.41,1.72-3.62,4.65-3.57,5.26,0,5,5.42,6.77,12.06,3.41,12.06,3.41l.66,0s-2.6,6.26-1.92,7-.19,8.3-1.35,8.48-4.73,5.22-4.9,5.42,15,.47,16.51-7.43c0,0,3.06-9.3,3.3-9.71s1.84-1.82,2.39-1.55,11.16,1.69,12.72-1l1.93,1.37s3,11,4.29,11.4c0,0,3.65,4.71,6.85,4.91,0,0,5.84,1.68,8.17,1.18s.73-.06.73-.06-5.85-5.23-6.14-8-1-10.09-1-10.09l-1.87-4,7.06-2.24s5-2,5.48-3.38.89-4.76-1.2-5.87-.26-.29-.26-.29-4.1-4-5.28-3.63l-1.87,1s-5.75,4.31-6.5,4.59-5,2.87-5,2.87l-3.55.82-2.4,1.28s-7.87,2.25-12.44,1c0,0-2.37-1.67-2.88-1.53,0,0-3.41-.07-3.65.39s-12-4.3-12-4.3-7.47-5.34-7.33-5.79"/><path class="cls-12" d="M147.88,175.3s-.55-2-3.65,1.09-3.82,12.57-6.29,13.36a12.8,12.8,0,0,0-4.65,3.2s7.79-14,8.33-16,3.88-4,4.53-3.8a13.25,13.25,0,0,0,1.61.32Z"/><path class="cls-12" d="M158.75,176s.54-2,3.64,1.09,3.83,12.57,6.3,13.36a12.72,12.72,0,0,1,4.64,3.2s-7.79-14-8.33-16-3.88-4-4.53-3.79a15.77,15.77,0,0,1-1.61.32Z"/><path class="cls-13" d="M146.82,171.61a12.66,12.66,0,0,1-4.3,2.18,5.83,5.83,0,0,0-3.36,2,21.64,21.64,0,0,0-3,6.24,65.8,65.8,0,0,0-1.23,6.47,11.45,11.45,0,0,1-1.91,4.41,33,33,0,0,0,3.46-3.65,10.36,10.36,0,0,0,2.12-4.34,12.93,12.93,0,0,1,1.75-5.08c.88-1.26,1.75-2.53,2.74-3.73.66-.81,2.05-3.05,3.49-2.51.31.12,1.2.45,1.13.84.05-.3-.27-.84-.36-1.12l-.57-1.75"/><path class="cls-13" d="M158.89,171.49a16.8,16.8,0,0,0,4.89,2.67,5.79,5.79,0,0,1,3.33,2.08,21.37,21.37,0,0,1,2.84,6.28,62.85,62.85,0,0,1,1.11,6.49,11.68,11.68,0,0,0,1.84,4.43,31.9,31.9,0,0,1-3.39-3.7,10.34,10.34,0,0,1-2-4.36,12.57,12.57,0,0,0-1.66-5.1c-.85-1.28-1.7-2.55-2.67-3.77-.65-.82-2-3.08-3.44-2.55-.31.11-1.21.43-1.15.82a3.07,3.07,0,0,1,.11-1.13c.2-.58,0-1.57.24-2.16"/><path class="cls-9" d="M181.54,135.08s2.1-9.05,2.71-8.9a25.83,25.83,0,0,1,5.24,1.08c.82.34,1.4.79,1.38,1.39-.08,1.91,1.86,4.19-1.79,6.8s-4.72,2.78-4.72,2.78l-2.47-3.11Z"/><path class="cls-9" d="M195.34,123.34s-6.42,2.58-5.41,4.37a9.82,9.82,0,0,0-5.82-1.22s2.76-5.09,5.8-4.84a13.89,13.89,0,0,1,5.43,1.69"/><path class="cls-9" d="M117,148.69s-7.66-.14-9.54-5.25c0,0-.11-4.77,3.89-5.21l1.52-.61,5.19,6.83Z"/><path class="cls-9" d="M107.5,141.16s-1.15-3.44-6.43-2.63c0,0,1.2-3.61,4.4-3.68s7.57,1.24,7,2.77-5,3.54-5,3.54"/><path class="cls-10" d="M157.78,53.5s5.79,5.87,5.93,6.39c0,0-1.15-3.18-5.28-6.8"/><path class="cls-10" d="M95.72,70.14c0,1.46.11,2.91.3,4.36a.48.48,0,0,0,.15.36,4.63,4.63,0,0,1-1.07-2.67"/><path class="cls-10" d="M154.1,82.23c.05-.53-16.7-.72-16.7-.72,4.16-.65,23.79.69,23.79.69"/><path class="cls-3" d="M185.21,53.6s6.43,29.8-11.42,29.29l-.47,0c-18.43-1.05.16,0,.16,0s19.18-3,17.83-13.38c0,0,.3-8.36-1.4-11.45a11.35,11.35,0,0,0-4.7-4.45"/><path class="cls-3" d="M90.75,96.43c1.72.31,20.22.93,26.29-1.11,0,0-11.57,6.44-22.28,3s-4-1.86-4-1.86"/><path class="cls-3" d="M185,53.6a96.07,96.07,0,0,1-2.25,21.81,12,12,0,0,1-2.27,5,3.72,3.72,0,0,1-1.93,1.26,33.39,33.39,0,0,0,6-2.46,4,4,0,0,0,1.31-1,3.18,3.18,0,0,0,.51-1.57,79.25,79.25,0,0,0,.52-11.21,68,68,0,0,0-.57-10c-.06-.37-.08-1.26-.48-1.52"/><path class="cls-3" d="M165.46,83.07c.67,3.06,2,6.07,2.59,9.23q1.32,7.15,2.63,14.31a8.13,8.13,0,0,1-1.38,6.71c2.53.28,5.26-1,7.68-1.52-4.68-8.9-5.92-18.79-7.11-28.48a16,16,0,0,0-4.41-.25"/><path class="cls-12" d="M179.13,166s4.51-.16,4.44-3c0,0-4.26-4.9-6-3.3s-12.37,8.52-12.72,8.57,2.16.75,2.56,1.27,2.32,1.93,2.43,2.32,3.38-1.23,3.33-2.14c0,0-2.53.8-3.36.34s-1.41-1.22-2.29-1.38-.26-1.21,2.62-1.86,5.49-4.3,5.49-4.3,2.08-2.35,2.83-1.55c0,0,1.92-.77,2.59.57s2,1,1.41,2,1.43.09-3.36,2.45"/><path class="cls-12" d="M114.9,167.66A6.27,6.27,0,0,1,116,166.2c2.37-2.24,3.19,2.11,5.49,2-.36-.93-1.36-1.61-1.82-2.51a5.94,5.94,0,0,1-.33-3.37c.16-1.62,5.68,1.7,6.34,2.17a35.27,35.27,0,0,0,5.71,3.21c1.47.68,3,1.19,4.52,1.84.5.23,1.66.57,1.6,1.08s-1.39.87-1.81,1a24.83,24.83,0,0,1-2.85.21,6.37,6.37,0,0,0,.91.57c.14.08.3.17.34.31s-.2.42-.42.56c-1.36.9-1.32,2.21-3,2.88a3.78,3.78,0,0,0,2.16,1.43c-.34-.11,2.44-3.76,2.73-4.06a15.72,15.72,0,0,1,2.08-1.8c.48-.34,1.71-.81,1.88-1.35.3-1-4.05-2.05-5.12-2.46a62.31,62.31,0,0,1-6.12-2.74,26.8,26.8,0,0,1-9.15-7.25,1.63,1.63,0,0,1,.42,1.9,6.38,6.38,0,0,1-1.22,1.74,21,21,0,0,0-3.42,5.67"/><path class="cls-12" d="M122.86,168.66s3,2.19,5.64,2.41c0,0-5-1.84-5.64-2.41"/><path class="cls-12" d="M147.66,172.65c-.13-.07.11-1.43,1-1.18s1.13,1.85,1.13,1.85,0-1.73.67-1.54a14.7,14.7,0,0,0,4.26-.56l-7.67,0s.61,1.41.61,1.41"/><path class="cls-12" d="M154.05,171.21a8.18,8.18,0,0,1,.92,2.43c0,.53.2-1,.18-2,0-.42-.06-.74-.18-.79-.4-.16-.92.39-.92.39"/><path class="cls-12" d="M155,172.06s0-1,1.16-1,1.45.7,1.45.9.31-1.27.59-1.15a2.32,2.32,0,0,1,.58.42l.22-.94-4,.55"/><path class="cls-4" d="M171.69,112.67s10.38,8.67,8.21,12.71c-1.7,3.16,2.34-3.74,2.34-3.74s.54-3.79-6.16-9.69c0,0-3.37,1.08-4.39.72"/><path class="cls-3" d="M134.74,86.67s-17.14,14.06-26.13,12.71-.36-.69-.36-.69"/><path class="cls-12" d="M184.57,164a6.84,6.84,0,0,1,0,3.05c-.43,1-.15,2-1.25,2.61a.94.94,0,0,0-.43,1.47s3.44-1.17,3-3.56a8.68,8.68,0,0,0-1.34-3.57"/><path class="cls-12" d="M183.32,164s2.13,1.49,1.69,2.27,1.06-1.91-1.44-3.36-.25,1.09-.25,1.09"/><path class="cls-17" d="M117.32,150c-.19,2.33-7.06,2.35-8.72,2.15a13.13,13.13,0,0,1-8.19-4,14.25,14.25,0,0,1-2.7-4.75,10.31,10.31,0,0,1-.45-6.52c1.19-3.73,5.59-6,9.75-5.86,6.89.18,11.24,6.16,13.31,11.47"/><path class="cls-17" d="M154.43,138.18c-3.17.36-7.18.41-10,1.89a4.11,4.11,0,0,0-1.72,1.57,2.16,2.16,0,0,0,.67,2.81m20.43,23.9a42.52,42.52,0,0,0,4.72-2.38c4.65-2.68,13.2-8.91,14.77-12.5m-36.45-27.6c-3.9-.57-7.7-1.56-11.6-2.14a16.13,16.13,0,0,0-6.38-.11,7.57,7.57,0,0,0-4.84,4.19c-1.82,3.86-.72,7.7-1.37,11.64-.43,2.66-3.61,3.63-4.62,6.27-2.47,6.5,1.19,13.48,7.07,17.7a39.8,39.8,0,0,0,11.36,5.34,43.34,43.34,0,0,0,17.66,2.17,33.13,33.13,0,0,0,6.12-1.29"/><path class="cls-8" d="M100.49,138.85s6.88-12.88,18,6.22"/><path class="cls-8" d="M112.91,137.62c-2,.41-4.27,1.3-5.1,3.07a4.16,4.16,0,0,0,.16,3.46c1.66,3.65,5.6,4.34,9.43,4.57"/><path class="cls-17" d="M184.67,139.5c1.12,2.13,7.87.07,9.34-.61a11.29,11.29,0,0,0,6.08-6.16,12.72,12.72,0,0,0,.63-5.24,10.82,10.82,0,0,0-2.21-6.26c-2.61-3.15-7.65-4-11.52-2.65-6.39,2.18-8.07,9.07-7.87,14.66"/><path class="cls-17" d="M150.59,131.88c-1.14-5.49,2-10.56,7.06-11.32s10.06,3.08,11.2,8.57-2,10.55-7.07,11.31a8.75,8.75,0,0,1-3.64-.22,4.08,4.08,0,0,0-2.69-1.82,8.58,8.58,0,0,0-.85-.18,1.18,1.18,0,0,1-.69-.4,12.16,12.16,0,0,1-1.2-1.3A11.37,11.37,0,0,1,150.59,131.88Zm.45-14.54a17.23,17.23,0,0,0-4.18,8.84m34.27,30.23a17.64,17.64,0,0,0,4.68-9.94,13.57,13.57,0,0,0-1.14-7v0a12.36,12.36,0,0,0-5.84-6.16,12.65,12.65,0,0,0-1.18-.49c-1.41-.49-1.44-.62-2.26-1.94-1.51-2.41-1-5.48-2-8a14.25,14.25,0,0,0-4.53-5.9,15,15,0,0,0-4.78-2.46"/><path class="cls-8" d="M196.27,124s-11.65-10.09-14.38,11.1"/><path class="cls-8" d="M184.11,126.49c2-.19,4.53,0,6,1.4a4.34,4.34,0,0,1,1.23,3.29c-.08,3.91-3.5,5.71-7,7"/><path class="cls-17" d="M131.1,150.68c4.5,5.36,12,8.83,19.73,9.14s15.56-2.57,20.63-7.56"/><path class="cls-16" d="M173.2,152.53a6.63,6.63,0,0,1-3-.82"/><path class="cls-17" d="M173.2,152.53a6.63,6.63,0,0,1-3-.82"/><path class="cls-16" d="M128.57,151.45c1.87,0,4.27-1.73,4.43-2.38"/><path class="cls-17" d="M128.57,151.45c1.87,0,4.27-1.73,4.43-2.38"/><path class="cls-21" d="M165.89,130.36c-.76-3.7-4.08-6.28-7.4-5.78s-5.4,3.9-4.63,7.59,4.08,6.28,7.41,5.78,5.39-3.9,4.62-7.59"/><path class="cls-19" d="M164.44,130.57c-.6-2.91-3.14-5-5.66-4.59s-4.08,3-3.47,6,3.14,5,5.66,4.59,4.08-3,3.47-6"/><path class="cls-5" d="M158.61,127.76a1.6,1.6,0,0,1-1.31,2,1.82,1.82,0,0,1-2-1.45,1.6,1.6,0,0,1,1.3-1.95,1.83,1.83,0,0,1,2,1.45"/><path class="cls-17" d="M158.14,140.22s.38,1.37-.29,2"/><path class="cls-21" d="M148.65,141.82c.11.56-.11,1.06-.5,1.12s-.8-.34-.92-.9.11-1.06.5-1.12.8.34.92.9"/><path class="cls-21" d="M153.78,141.05c.11.56-.11,1.06-.5,1.12s-.8-.35-.92-.91.11-1.06.5-1.12.8.35.92.91"/><path class="cls-26" d="M129.1,130.64s15.27,3.74,14,4.74c0,0,1.78-2.84-14-4.74"/><path class="cls-26" d="M128.32,136.7s9.84-4.2,15-1.53c0,0-6.67-4.72-15,1.53"/><path class="cls-17" d="M176.36,111.92c3.26,2.93,5.69,6.44,5.72,10.17"/><path class="cls-17" d="M114.07,133.78a25.37,25.37,0,0,1,1.08-8.93"/><path class="cls-17" d="M114.9,152s2.18,4.31,5,6"/><path class="cls-17" d="M187.74,140.61s-1.32,8.44-2.73,9.15"/><path class="cls-8" d="M108.25,98.69c.18.46.35.94.49,1.42.55,1.84,1,3.71,1.39,5.58.79,3.77,1.36,7.55,2.14,11.32a54.73,54.73,0,0,0,2.23,8.11c0,.16,23.59-5.06,25.74-5.52l25.86-5.54c3.55-.76,7.23-1.28,10.72-2.28"/><path class="cls-8" d="M176.08,112c1-.18.84-.29.22-1.24a14.07,14.07,0,0,1-1.08-2.12,32.1,32.1,0,0,1-1.43-4.69,200.68,200.68,0,0,1-3.93-20.56"/><path class="cls-8" d="M133,176.86l0,.1c-3.93-.89-7.93-1.94-11.27-3.05-3.11-1-6-2.48-6.7-5.69-.44-1.91.92-3.77,2.39-5.26,1.18-1.21,1.6-3.82,3.75-3.22"/><path class="cls-8" d="M172.86,174.77c1.43-.4,2.81-.81,4.09-1.24,3.1-1,8.1-2.47,8.85-5.68.45-1.9-.92-3.76-2.38-5.25-1.19-1.21-3.61-3.72-5.76-3.11"/><path class="cls-8" d="M147.44,177.53a6.74,6.74,0,0,0-.34-5.52,5,5,0,0,0-2-2.08,5.94,5.94,0,0,0-4.52-.19,10.36,10.36,0,0,0-3.74,2.36,17.34,17.34,0,0,0-5.7,11.78c-.11,2.31.29,4.69-.54,6.89-1.05,2.8-3.86,4.82-5.89,7.2a23,23,0,0,0,7.49-.69,15.48,15.48,0,0,0,6.7-3.49,15.29,15.29,0,0,0,3.78-6.61c.48-1.49.86-3,1.32-4.49.4-1.32.65-2.88,2.27-3.49a1.92,1.92,0,0,1,.53-.12c.18,0,.28-.47.28-.47.16-.58.29-.65.39-1.15"/><path class="cls-8" d="M159,176.5a7.73,7.73,0,0,1-.35-4.95,2.82,2.82,0,0,1,.49-1,4.42,4.42,0,0,1,1.22-1,8.15,8.15,0,0,1,2.52-1.1,5.57,5.57,0,0,1,2.72.12,9.18,9.18,0,0,1,3,1.61c.35.27.69.56,1,.86a19.2,19.2,0,0,1,3.11,3.73,16.54,16.54,0,0,1,2.59,8c.11,2.31-.28,4.69.54,6.9,1,2.8,3.86,4.81,5.89,7.2a23,23,0,0,1-7.49-.69,15.48,15.48,0,0,1-6.7-3.49,15.33,15.33,0,0,1-3.78-6.62c-.48-1.48-.85-3-1.31-4.49-.41-1.31-.65-2.87-2.28-3.49a1.51,1.51,0,0,0-.53-.11c-.17,0-.28-.47-.28-.47-.15-.59-.28-.65-.39-1.15"/><path class="cls-11" d="M139.64,170.46a7.17,7.17,0,0,1,1.6-.6,9.35,9.35,0,0,1,1-.16,6.34,6.34,0,0,1,.77,0,5.23,5.23,0,0,1,.77.1,4.54,4.54,0,0,1,.9.28,4,4,0,0,1,.41.21l.1.07a7.1,7.1,0,0,1,1,.85,51.6,51.6,0,0,1-6.51-.75"/><path class="cls-17" d="M95.4,69.88S75,81.61,87.14,93.91s30.6,2.1,44-5.47c9.24-5.25,21.31-7.31,32.2-5.71,9.39,1.39,21.89-.69,26.47-8.78a15.75,15.75,0,0,0,1.55-10.11c-3-20.88-33.07-10.55-33.07-10.55"/><path class="cls-17" d="M161.73,57.14c-4.78-5.25-10.37-10.43-17.42-13.48a30,30,0,0,0-12.37-2.55c-7.64.14-14.69,3.57-20.64,7.38-5.46,3.51-10.49,8-13.47,13.32a17.28,17.28,0,0,0-2.37,10.48"/><line class="cls-8" x1="113.89" y1="123.34" x2="175.98" y2="109.83"/><path class="cls-4" d="M108,112.55s2.27,16,3.79,16.17l2.25-.84.56-2.45s-.41.17-.56-.41-2.89-9.57-2.91-12.59-.14,0-.14,0Z"/><path class="cls-4" d="M112.45,154l3-.15,1.78,2.33s-8,13.46-16.82,14.64l2-1.72s13-13.59,10.32-15-.35-.1-.35-.1"/><path class="cls-27" d="M138.46,100.09s0,0,0-.06h.13a2.07,2.07,0,0,1,.8.28c.09.06,0,.17-.12.34a.84.84,0,0,1-.35.18c-.18.07-.42.14-.73.23.13.33.25.62.37.86a5.27,5.27,0,0,0,.35.64,1.44,1.44,0,0,0,.36.4s0,0,.05,0h.17s0,0,0,0,0,.15-.1.2-.07,0-.09,0a2.62,2.62,0,0,1-.76-.83q-.17-.24-.33-.54l-.36-.67-1.16.33-1.32.34a9.74,9.74,0,0,1-.44,1.24c-.18.42-.4.87-.64,1.33a5.92,5.92,0,0,1-2.22,2.48,1.49,1.49,0,0,1-1.07.16,1.41,1.41,0,0,1-.84-.61A3,3,0,0,1,130,106a2.59,2.59,0,0,1-.14-.58,1.81,1.81,0,0,1,.67-1.82,3.82,3.82,0,0,1,.42-.3c.16-.09.34-.19.55-.29a22.07,22.07,0,0,1,3.81-1.33c.14-.49.31-1.22.51-2.18.11-.52.2-1,.27-1.42s.12-.79.14-1.11a.17.17,0,0,1,.09-.1.85.85,0,0,1,.42-.06c.18,0,.27,0,.28.08l.31,1.27.23.91a16.05,16.05,0,0,0,.61,1.92,3.56,3.56,0,0,0,.83-.26c.2-.09.27-.18.21-.26a.83.83,0,0,0-.58-.27.17.17,0,0,1-.14-.06m-8.4,4.35a1.71,1.71,0,0,0,0,.91,2.19,2.19,0,0,0,.35.87,1.4,1.4,0,0,0,.7.57,1.17,1.17,0,0,0,.49.07,1.24,1.24,0,0,0,.5-.15,5.57,5.57,0,0,0,2.14-2.38,14.59,14.59,0,0,0,1-2.45,18.49,18.49,0,0,0-3.64,1.28c-.22.11-.4.21-.56.31a2.36,2.36,0,0,0-.42.28,1.51,1.51,0,0,0-.52.69m6.64-3.12,1.16-.31a16.88,16.88,0,0,1-1.15-3.56c0-.06,0-.1-.05-.12s-.11-.11-.17-.08-.05,0-.06.06a.46.46,0,0,0,0,.09c-.11.75-.24,1.47-.39,2.17s-.32,1.36-.51,2l1.2-.26"/><path class="cls-27" d="M142.05,99h.17a.23.23,0,0,1,.12,0,.24.24,0,0,1,0,.17c.05.2.1.45.17.74s.14.63.22,1a21.87,21.87,0,0,1,2.39-1.17l.38-.14.3-.1a.75.75,0,0,1,.23,0,1.14,1.14,0,0,1,.26,0,.86.86,0,0,1,.23.06.38.38,0,0,1,.16.11.24.24,0,0,1,.05.13,1.24,1.24,0,0,1-.28.58.16.16,0,0,1-.09.09s0,0,0,0,0,0,0-.1c.18-.33.21-.57.08-.73s-.3-.13-.6,0l-.29.1-.36.15c-.52.21-1,.42-1.4.61a11.22,11.22,0,0,0-1.06.56q1.09,5.44-2.43,7.08a5.71,5.71,0,0,1-2.66.47,2.64,2.64,0,0,1-2-.68.83.83,0,0,1-.19-.45c-.08-.81.82-2,2.69-3.47a33.25,33.25,0,0,1,4.25-2.9,5.66,5.66,0,0,0-.24-1c0-.07,0-.14-.06-.19a.64.64,0,0,1,0-.17c-.06.1-.14.22-.25.37l-.42.55a8.07,8.07,0,0,1-.57.69c-.17.19-.32.34-.45.46l-.15.08a.39.39,0,0,1-.47-.06.25.25,0,0,1-.05-.2,2.27,2.27,0,0,1,.68-1.46A4.07,4.07,0,0,1,142,99h.06M136,108a2.3,2.3,0,0,0,1.72.61,5.62,5.62,0,0,0,2.51-.47,4.13,4.13,0,0,0,2.41-3.52,9,9,0,0,0,.07-1.64,10,10,0,0,0-.24-1.68,30.59,30.59,0,0,0-4.61,3.27c-1.45,1.31-2.13,2.32-2,3a.77.77,0,0,0,.17.38m5.93-8.55h0s0,0,0,0-.1-.09-.14-.07a1.09,1.09,0,0,0-.38.18,3.32,3.32,0,0,0-.94.89,1.37,1.37,0,0,0-.32,1l0,0s0,0,0,0a.26.26,0,0,0,.34.08,3.27,3.27,0,0,0,.75-.82c.16-.2.28-.37.39-.53a3.74,3.74,0,0,0,.26-.39.33.33,0,0,0,0-.39"/><path class="cls-27" d="M146,97.41c0,.21,0,.41,0,.62s0,.41.07.6a1.72,1.72,0,0,0,.13.46.63.63,0,0,0,.13.21.19.19,0,0,0,.12,0l.11-.06.11-.1a.51.51,0,0,0,.12-.13.5.5,0,0,0,.1-.13c.06-.11.11-.14.15-.1s0,.11,0,.2a2.86,2.86,0,0,1-.12.27,1.08,1.08,0,0,1-.18.23.17.17,0,0,1-.14,0,.74.74,0,0,1-.21,0,.66.66,0,0,1-.21-.08.31.31,0,0,1-.15-.12,1.2,1.2,0,0,1-.17-.34,1.58,1.58,0,0,1-.11-.37c0-.12-.05-.25-.07-.37a3.48,3.48,0,0,0-.05-.36.26.26,0,0,0-.12-.19c-.08,0-.13,0-.18.18s-.15.44-.25.75-.22.6-.34.9-.22.57-.33.82a1.56,1.56,0,0,1-.28.47.45.45,0,0,1-.45.13.57.57,0,0,1-.36-.26,1.72,1.72,0,0,1-.16-.47,3.78,3.78,0,0,1-.08-.6q0-.32,0-.66c0-.23,0-.44,0-.66s0-.4.06-.57,0-.32.08-.44a.3.3,0,0,1,.21-.19.11.11,0,0,1,.11,0s0,.09,0,.18-.07.46-.1.73,0,.53-.05.8a6.37,6.37,0,0,0,0,.76,2.38,2.38,0,0,0,.09.6c.08.25.17.39.28.41s.23,0,.33-.19a4.59,4.59,0,0,0,.43-.86c.12-.34.24-.68.35-1s.21-.69.3-1,.19-.61.28-.84a.14.14,0,0,1,.11-.12.23.23,0,0,1,.16,0,.41.41,0,0,1,.14.12.19.19,0,0,1,0,.12c0,.16,0,.33,0,.54"/><path class="cls-27" d="M149.45,96.46a10.86,10.86,0,0,1,1.19-1h0a7.6,7.6,0,0,0-1.08,1,11.27,11.27,0,0,0-1,1.27,2.69,2.69,0,0,1,.32.14A.35.35,0,0,1,149,98c.1.15,0,.39-.31.73a2.13,2.13,0,0,1-.7.6.6.6,0,0,1-.2.07l-.19.13a.19.19,0,0,1-.12.06c-.09,0-.13,0-.13-.07a9.48,9.48,0,0,1,.7-1.4l-.52-.2a1.57,1.57,0,0,1-.29-.13.91.91,0,0,1-.21-.18c-.28-.32-.13-.92.45-1.78a5.73,5.73,0,0,1,.91-1.1,3.77,3.77,0,0,1,1-.69.19.19,0,0,1,.13,0c.05,0,.08.07.07.1a.66.66,0,0,1-.1.26c-.06.1-.12.15-.17.16l-.41.09a.94.94,0,0,0-.26.1l-.11,0-.08.06a3.59,3.59,0,0,0-.86,1.11c-.35.62-.42,1-.21,1.28a1.46,1.46,0,0,0,.47.3,1.64,1.64,0,0,0,.51.14,7.3,7.3,0,0,1,1.07-1.24m-1.57,2.83a1.24,1.24,0,0,0,.5-.36l.24-.25a.35.35,0,0,0,.09-.2.12.12,0,0,0,0-.1.7.7,0,0,0-.4-.19,4.44,4.44,0,0,0-.27.49,2.64,2.64,0,0,0-.17.33.57.57,0,0,0-.06.21c0,.07,0,.1.09.07"/><path class="cls-27" d="M227,102.33l-.1.07-.17.09a.94.94,0,0,1-.28.1c-.05,0-.08-.06-.08-.17,0-.31.33-.84,1-1.57a11,11,0,0,1,.82-.85c.29-.27.59-.54.9-.79a7.44,7.44,0,0,0,.37-.67c.11-.23.21-.46.3-.7a3,3,0,0,0,.25-.94.41.41,0,0,0-.14-.36.82.82,0,0,0-.48-.06,6.11,6.11,0,0,0-2.59,1.16c-1.11.74-1.66,1.33-1.66,1.79,0,.09.08.15.23.2a1,1,0,0,0,.31.05c.09,0,.13,0,.13,0s-.05,0-.15.07a.41.41,0,0,1-.31,0,.52.52,0,0,1-.32-.45c0-.33.28-.73.85-1.23a9.38,9.38,0,0,1,1.82-1.19,4.82,4.82,0,0,1,1.66-.58,1.11,1.11,0,0,1,.57.18c.19.13.29.27.28.41a2.84,2.84,0,0,1-.19.82,9.93,9.93,0,0,1-.5,1.13,3.73,3.73,0,0,1,1.63-.87.51.51,0,0,1,.33.13.3.3,0,0,1,.11.28,9.65,9.65,0,0,1-1.28,2.93c0,.09,0,.14.07.14a.17.17,0,0,0,.13-.08A23.57,23.57,0,0,1,233,99.09a6.37,6.37,0,0,1,2.72-1.62.4.4,0,0,1,.38.23.83.83,0,0,1,.13.44c0,.09,0,.15,0,.17-.35.47-.63.86-.86,1.19s-.41.59-.53.77a7,7,0,0,0-1.1,2.38.13.13,0,0,0,0,.06v.05c0,.2.1.29.29.25l.31-.11c.11-.06.25-.13.4-.23a3.67,3.67,0,0,0,.65-.51c0-.07.1-.1.13-.1s0,0,0,0a.23.23,0,0,1-.07.13,3,3,0,0,1-.6.53,3.65,3.65,0,0,1-.44.29,2.66,2.66,0,0,1-.39.14.28.28,0,0,1-.3-.14.64.64,0,0,1-.15-.39,5.29,5.29,0,0,1,.81-2.16c.22-.39.46-.78.72-1.18s.54-.8.85-1.21a.59.59,0,0,0,.1-.16.35.35,0,0,0,0-.13c0-.11-.09-.17-.28-.17l-.26,0a8.07,8.07,0,0,0-2.63,1.7,27,27,0,0,0-2.81,2.7.36.36,0,0,1-.28.1c-.1,0-.15,0-.15-.08v0l0,0c.53-.86.95-1.6,1.24-2.2a7,7,0,0,0,.57-1.45c0-.18,0-.26-.21-.26a2.11,2.11,0,0,0-1,.44,5.21,5.21,0,0,0-.89.7,14,14,0,0,1-2.28,3.07m.38-.63c.19-.22.4-.49.62-.8a9.42,9.42,0,0,0,.91-1.36,7.53,7.53,0,0,0-1.17,1.13,5.46,5.46,0,0,0-1,1.44c-.07.14-.06.21,0,.21a.21.21,0,0,0,.14-.09,7.05,7.05,0,0,0,.49-.53"/><path class="cls-27" d="M235.47,102.47c-.15,0-.23-.09-.23-.27,0-.38.34-.85,1-1.43a6.36,6.36,0,0,1,.88-.65,4.43,4.43,0,0,1,.77-.37l.18,0h.42l.22.06h.18a.38.38,0,0,0,.24-.1h.05a.08.08,0,0,1,.07,0,.06.06,0,0,1,0,0l-.53.69c-.18.23-.35.46-.51.7a4.56,4.56,0,0,0-.38.63c-.12.24-.24.48-.34.72s-.19.48-.26.7a3.6,3.6,0,0,0-.15.55s0,0,0,.07v.08a.45.45,0,0,0,.2.4,1,1,0,0,0,.52.13,2.16,2.16,0,0,0,.66-.1,5.1,5.1,0,0,0,1.27-.67,6.26,6.26,0,0,0,.67-.53c.2-.19.38-.36.52-.52l.11-.08s0,0,0,0a.23.23,0,0,1,0,.09c-.15.18-.31.36-.51.56a5.71,5.71,0,0,1-.72.6c-.26.18-.49.32-.69.44a3.31,3.31,0,0,1-.57.25,1.22,1.22,0,0,1-.26.06l-.27,0a1.31,1.31,0,0,1-.41-.06,1.66,1.66,0,0,1-.33-.15.49.49,0,0,1-.25-.24,1.06,1.06,0,0,1-.06-.37,4.3,4.3,0,0,1,.08-.44c.05-.18.11-.37.18-.58l.24-.62c.09-.2.17-.38.26-.54s.21-.36.31-.52a3.94,3.94,0,0,1,.31-.45c0-.06,0-.09,0-.09l0,0a6.68,6.68,0,0,1-.53.48l-.71.55a13.11,13.11,0,0,1-1.39.87.49.49,0,0,1-.22.06m.33-.55c0,.13,0,.19.16.19a.25.25,0,0,0,.14,0,6.79,6.79,0,0,0,1.09-.74,15,15,0,0,0,1.22-1.13.09.09,0,0,0,0-.06c0-.06,0-.11-.12-.16a.56.56,0,0,0-.3-.08l-.22,0a2.68,2.68,0,0,0-1.09.71,4.58,4.58,0,0,0-.53.58,3,3,0,0,0-.35.52.57.57,0,0,0,0,.18"/><path class="cls-27" d="M242.07,100.41l-.65.38-.64.39-.51.33a2.69,2.69,0,0,0,.1.32c0,.14.11.28.17.42a3.7,3.7,0,0,0,.18.4,1.29,1.29,0,0,0,.21.3c.07.08.09.12.06.13s-.09,0-.16-.07a1.76,1.76,0,0,1-.19-.26l-.22-.37c-.07-.13-.13-.27-.19-.4s-.11-.25-.15-.35l-.43.28-.51.37c-.17.14-.35.28-.53.44a6.17,6.17,0,0,0-.54.48c-.08.08-.19.19-.3.32a2.53,2.53,0,0,0-.31.42,1.23,1.23,0,0,0-.16.44.56.56,0,0,0,.12.43.68.68,0,0,0,.25.23,1,1,0,0,0,.31.11c.05,0,.07,0,.05.06s-.05,0-.1,0a1.38,1.38,0,0,1-.31-.12,1.27,1.27,0,0,1-.28-.23.77.77,0,0,1-.18-.42,1,1,0,0,1,.09-.45,1.8,1.8,0,0,1,.28-.44q.18-.23.39-.45a5.72,5.72,0,0,1,.51-.46q.27-.24.54-.45l.55-.42.49-.35a2.24,2.24,0,0,1-.08-.29c0-.12-.06-.24-.08-.36s0-.23-.07-.35,0-.21,0-.29a.1.1,0,0,1,0-.09.12.12,0,0,1,.06-.06.06.06,0,0,1,.07,0s0,0,0,.08,0,.18.06.3,0,.22.05.33.05.23.07.33a1.25,1.25,0,0,0,.08.27c.11-.08.28-.18.49-.31s.42-.27.65-.41l.65-.37.49-.26a.15.15,0,0,1,.18.06.1.1,0,0,1,0,.09.21.21,0,0,1-.1.08,5.15,5.15,0,0,0-.51.24"/><path class="cls-27" d="M243.94,101.73c-.15.1-.32.21-.5.31s-.36.21-.54.3a4.5,4.5,0,0,1-.48.22h-.17a.62.62,0,0,1-.23-.07.65.65,0,0,1-.21-.16.36.36,0,0,1-.08-.24.93.93,0,0,1,.07-.32,3.15,3.15,0,0,1,.19-.43c.07-.14.15-.3.24-.45l.23-.42.19-.33a.91.91,0,0,0,.08-.17.15.15,0,0,1,.11-.13.23.23,0,0,1,.18,0,.18.18,0,0,1,.12.11.25.25,0,0,1,0,.22l-.48.78-.25.39a1.25,1.25,0,0,1-.09.16.17.17,0,0,1,0,.05l0,.08-.14.26a.79.79,0,0,0-.12.3.21.21,0,0,0,.06.16.29.29,0,0,0,.16,0l.19,0a1.76,1.76,0,0,0,.44-.15l.54-.27c.18-.1.36-.19.52-.29s.28-.19.36-.25.1-.08.12-.08,0,0,0,0,0,0,0,.07a.32.32,0,0,1-.08.09l-.34.24m-.5-2.36c-.14.11-.25.16-.34.14s-.2-.06-.2-.13.07-.17.21-.29a.69.69,0,0,1,.34-.21.22.22,0,0,1,.19.05.11.11,0,0,1,.06.14.66.66,0,0,1-.26.3"/><path class="cls-27" d="M54.47,104.21a14.91,14.91,0,0,1,1.74-.47l-.81-.68-1-.82a1.82,1.82,0,0,1-.72-1,.94.94,0,0,1,.47-1,6.29,6.29,0,0,1,3-1.17,4.33,4.33,0,0,1,1.12,0,1.57,1.57,0,0,1,.64.27,1,1,0,0,1,.34.6.78.78,0,0,1,0,.22,1,1,0,0,1,0,.24.73.73,0,0,1-.05.12s0,0,0,0a.45.45,0,0,1,0-.14,1.13,1.13,0,0,0,0-.25,1,1,0,0,0-.38-.63,1.25,1.25,0,0,0-.69-.26,3,3,0,0,0-.52,0c-.19,0-.38,0-.59,0a4.91,4.91,0,0,0-2.64,1.07.87.87,0,0,0-.39.86,1.76,1.76,0,0,0,.62.88l.81.63c.33.26.72.57,1.16.94l.37-.06.51-.07c.07,0,.1,0,.11,0s-.11,0-.32.09-.49.08-.55.09a1.44,1.44,0,0,1,.39.71c.1.52-.16.94-.76,1.26a6.45,6.45,0,0,1-.82.34,5.34,5.34,0,0,1-.9.2,4.24,4.24,0,0,1-1.23,0c-.53-.08-.82-.28-.88-.61s.16-.6.66-.86a8.79,8.79,0,0,1,1.37-.6m1.06-.16-.59.17a7.47,7.47,0,0,0-1.68.74c-.47.29-.69.55-.65.79s.12.21.3.3a1,1,0,0,0,.41.12,3.25,3.25,0,0,0,.54,0l.55,0a4.94,4.94,0,0,0,.9-.22,3.87,3.87,0,0,0,.8-.37c.5-.3.71-.65.64-1a1.1,1.1,0,0,0-.45-.66l-.77.21"/><path class="cls-27" d="M60.89,103.12a1,1,0,0,1-.43.21l-.45.1-.67.1-.72.11-.64.09c0,.08-.11.18-.16.28a3.54,3.54,0,0,0-.16.34,2.47,2.47,0,0,0-.11.36,1.15,1.15,0,0,0,0,.37.61.61,0,0,0,.1.27.38.38,0,0,0,.16.15.54.54,0,0,0,.22,0,.86.86,0,0,0,.23,0,3.65,3.65,0,0,0,.62-.23,4.31,4.31,0,0,0,.54-.31c.05,0,.08,0,.11,0s0,0,0,.07l-.22.17-.27.18-.32.17a1.66,1.66,0,0,1-.32.13.77.77,0,0,1-.31,0,1.1,1.1,0,0,1-.33-.12,1.05,1.05,0,0,1-.27-.2.45.45,0,0,1-.13-.28,1.86,1.86,0,0,1,.11-.89,3.93,3.93,0,0,1,.47-.88,4.47,4.47,0,0,1,.63-.73,2.76,2.76,0,0,1,.65-.48.56.56,0,0,1,.31,0,.49.49,0,0,1,.24.15.43.43,0,0,1,.14.23.36.36,0,0,1,0,.27.9.9,0,0,1-.42.43,3.18,3.18,0,0,1-.77.32l.5-.07.5-.07.44-.07.34-.07a1.1,1.1,0,0,0,.37-.16,1.05,1.05,0,0,0,.27-.21s.05,0,.07,0,0,0,0,.08a1.63,1.63,0,0,1-.26.24m-1.21-.64a.21.21,0,0,0-.07-.14.2.2,0,0,0-.17,0,.5.5,0,0,0-.23.1,3.48,3.48,0,0,0-.6.52,8.11,8.11,0,0,0-.55.64,3.26,3.26,0,0,0,.48-.11,3.76,3.76,0,0,0,.46-.2,2.68,2.68,0,0,0,.37-.26,1.33,1.33,0,0,0,.25-.3.6.6,0,0,0,.06-.23"/><path class="cls-27" d="M61,102.72a.24.24,0,0,1,0-.07s0,0,0,0v0q2.17-7,6-7.69a3.69,3.69,0,0,1,2.45.36,1.91,1.91,0,0,1,1.23,1.53,1.29,1.29,0,0,1-.09.6c-.4,1-1.79,2.1-4.15,3.25-.82.4-1.66.77-2.51,1.1s-1.72.64-2.62.91a5.09,5.09,0,0,0-.18.55c-.07.22-.13.49-.2.8a1.45,1.45,0,0,0-.07.26c0,.08,0,.15,0,.21.09-.09.22-.21.4-.36l.67-.52c.32-.26.61-.47.85-.64a6.6,6.6,0,0,1,.62-.38.58.58,0,0,1,.17,0q.31,0,.36.24l0,.12a.65.65,0,0,1,0,.13,4.12,4.12,0,0,1-1.39,1.54,4.19,4.19,0,0,1-1.95.83s0,0-.06,0a.22.22,0,0,1-.13-.06.18.18,0,0,1-.08-.11,1.22,1.22,0,0,1,.1-.2c.07-.25.17-.56.27-.93s.23-.78.37-1.25c0,0,0,0,0,0v0h0a.14.14,0,0,0,0-.06s0,0,0,0l0,0M60.69,105h0v0l0,0c0,.07,0,.11.06.11a1.22,1.22,0,0,0,.42-.09,2.66,2.66,0,0,0,.64-.3,4.91,4.91,0,0,0,.63-.45,2.46,2.46,0,0,0,.81-1.08v-.13q0-.24-.24-.21a4.23,4.23,0,0,0-1.08.72c-.24.18-.44.35-.62.5l-.44.39a.73.73,0,0,0-.21.46m9.66-8a2.11,2.11,0,0,0,0-.26,1.68,1.68,0,0,0-1.08-1.34A3.72,3.72,0,0,0,67,95.1c-1.46.26-2.78,1.39-3.95,3.41a16.91,16.91,0,0,0-1.72,4.08,32.35,32.35,0,0,0,5.63-2.35c1.91-1,3-2,3.38-3a2.38,2.38,0,0,0,0-.26"/><path class="cls-27" d="M63.64,105c-.16,0-.25-.06-.28-.24-.07-.37.18-.89.74-1.55a6.79,6.79,0,0,1,.76-.76,3.68,3.68,0,0,1,.69-.47l.17-.07.2,0a.79.79,0,0,1,.22,0l.23,0,.17,0a.36.36,0,0,0,.22-.13.09.09,0,0,1,.12,0,.09.09,0,0,1,0,0c-.13.26-.27.51-.4.76s-.25.49-.37.75a4.69,4.69,0,0,0-.26.67c-.08.26-.14.51-.2.76a6.87,6.87,0,0,0-.13.72,3.14,3.14,0,0,0,0,.57.16.16,0,0,0,0,.07v.08a.53.53,0,0,0,.27.37,1,1,0,0,0,.54.05,2.28,2.28,0,0,0,.63-.18,4.44,4.44,0,0,0,1.13-.83,5.35,5.35,0,0,0,.57-.62c.16-.21.3-.4.42-.58s.08-.09.09-.09a0,0,0,0,1,0,0,.51.51,0,0,1,0,.09,7,7,0,0,1-.4.62,5.28,5.28,0,0,1-.6.69c-.22.21-.42.38-.6.53a3.5,3.5,0,0,1-.52.32,1.17,1.17,0,0,1-.24.09,2.14,2.14,0,0,1-.27.06,1.12,1.12,0,0,1-.41,0,1.36,1.36,0,0,1-.36-.1.5.5,0,0,1-.28-.21.77.77,0,0,1-.13-.35,3.18,3.18,0,0,1,0-.44,4.43,4.43,0,0,1,.07-.6c0-.22.07-.43.12-.64s.1-.41.15-.57.14-.39.21-.56.15-.34.22-.49,0-.09,0-.08,0,0,0,0a6.18,6.18,0,0,1-.44.54c-.17.19-.37.41-.6.64a11.67,11.67,0,0,1-1.22,1,.46.46,0,0,1-.19.09m.21-.59c0,.12.09.18.2.16a.24.24,0,0,0,.13,0,6.27,6.27,0,0,0,.94-.88,15.56,15.56,0,0,0,1-1.28.14.14,0,0,0,0-.06c0-.06-.06-.11-.15-.14a.64.64,0,0,0-.32,0l-.2.05a2.61,2.61,0,0,0-1,.86,4.92,4.92,0,0,0-.42.63,2.68,2.68,0,0,0-.24.57.37.37,0,0,0,0,.18"/><text class="cls-28" transform="translate(85.69 241.07)">Monitos</text><text class="cls-28" transform="translate(60.18 264.98)">Hambrientos</text><line class="cls-29" x1="80.94" y1="273.95" x2="215.96" y2="273.95"/><line class="cls-29" x1="82.15" y1="213.78" x2="208.06" y2="213.78"/><polygon class="cls-30" points="140.4 20.3 147.28 20.3 149.72 13.99 152.09 20.3 158.87 20.3 153.57 24.52 155.34 31.05 149.72 27.24 143.9 31.05 145.87 24.55 140.4 20.3"/><path class="cls-31" d="M164.59,26.22c1.66-1.31,4.12-2.77,6.83-2.38,3.25.48,3.76,3.19,7,3.39s4.8-2.41,7.7-1.7a7.64,7.64,0,0,1,3.18,1.7,6.54,6.54,0,0,1,.68.75"/><path class="cls-31" d="M136.23,26.22c-1.76-1.33-4.35-2.81-7.21-2.41-3.43.48-4,3.23-7.34,3.44s-5.06-2.44-8.12-1.72a8.08,8.08,0,0,0-3.36,1.72,5.63,5.63,0,0,0-.71.77"/></g></g></svg>